<svg xmlns="http://www.w3.org/2000/svg" width="120.8" height="1.5" viewBox="0 0 120.8 1.5">
  <g id="グループ_569" data-name="グループ 569" transform="translate(-350 -1641.737)">
    <path id="パス_4" data-name="パス 4" d="M172.345,937.276c1.243,0,2.485,0,3.728,0a3.29,3.29,0,0,1,1.052.118c.6.21.557.564-.107.726a5.994,5.994,0,0,1-1.368.18c-2.009.02-4.019.042-6.028.05-.434,0-.871-.044-1.3-.085a2.013,2.013,0,0,1-1.042-.371c-.3-.232-.166-.391.37-.495a6.361,6.361,0,0,1,1.187-.083c1.17,0,2.339,0,3.51,0Z" transform="translate(214.398 704.646)" fill="#e6aa37" fill-rule="evenodd"/>
    <path id="パス_5" data-name="パス 5" d="M267.734,937.265c.882,0,1.828.1,2.785.055a4.562,4.562,0,0,1,.652.038c.41.043.642.2.693.4.057.232-.116.435-.546.518a7.228,7.228,0,0,1-1.6.19c-1.756-.044-3.512-.083-5.269-.125a2.438,2.438,0,0,1-.926-.156c-.368-.165-.79-.36-.689-.621s.676-.253,1.1-.279A33.4,33.4,0,0,1,267.734,937.265Z" transform="translate(153.629 704.68)" fill="#e6aa37" fill-rule="evenodd"/>
    <path id="パス_6" data-name="パス 6" d="M208.522,936.781c1.06,0,2.124-.028,3.179.009.783.028,1.09.349.765.678a1.536,1.536,0,0,1-.92.265c-.828.067-1.664.12-2.5.148-.948.031-1.9.039-2.852.033a2.539,2.539,0,0,1-1.874-.558c-.244-.273-.111-.4.488-.465C206.031,936.756,207.287,936.821,208.522,936.781Z" transform="translate(190.851 704.966)" fill="#e6aa37" fill-rule="evenodd"/>
    <path id="パス_8" data-name="パス 8" d="M117.284,937.91c-.57.123-.7.389-1.159.476a13.009,13.009,0,0,1-2.383.283c-1.17.005-2.34-.029-3.511-.045a2.708,2.708,0,0,1-1.955-.568,7.243,7.243,0,0,1,2.259-.17c1.764.055,3.507,0,5.249-.081A7.1,7.1,0,0,1,117.284,937.91Z" transform="translate(251.763 704.313)" fill="#e6aa37" fill-rule="evenodd"/>
    <path id="パス_58870" data-name="パス 58870" d="M117.284,937.91c-.57.123-.7.389-1.159.476a13.009,13.009,0,0,1-2.383.283c-1.17.005-2.34-.029-3.511-.045a2.708,2.708,0,0,1-1.955-.568,7.243,7.243,0,0,1,2.259-.17c1.764.055,3.507,0,5.249-.081A7.1,7.1,0,0,1,117.284,937.91Z" transform="translate(353.517 704.313)" fill="#e6aa37" fill-rule="evenodd"/>
    <path id="パス_9" data-name="パス 9" d="M304.15,937.411c.591,0,1.54,0,2.49,0,.522,0,.948.081,1.027.4s-.139.491-.778.6a10.258,10.258,0,0,1-1.6.17c-1.022.017-2.042.074-3.064.09a2.4,2.4,0,0,1-2.006-.646c-.254-.326-.158-.469.514-.5C301.747,937.478,302.77,937.457,304.15,937.411Z" transform="translate(129.966 704.56)" fill="#e6aa37" fill-rule="evenodd"/>
    <path id="パス_10" data-name="パス 10" d="M135.039,937.711a13.675,13.675,0,0,1,3.011-.073,24.989,24.989,0,0,0,2.514-.019,6.179,6.179,0,0,1,1.7.108c.416.1.646.244.6.427s-.382.277-.814.3a24.333,24.333,0,0,1-5.8-.19A2.354,2.354,0,0,1,135.039,937.711Z" transform="translate(234.769 704.445)" fill="#e6aa37" fill-rule="evenodd"/>
    <path id="パス_11" data-name="パス 11" d="M237.225,938.459c-.555-.015-1.249-.021-1.936-.055a2.931,2.931,0,0,1-1.831-.56c-.274-.253-.132-.346.567-.374.252-.01.514-.01.764,0,1.525.09,3.059.087,4.594.078.182,0,.365,0,.548,0,.474.012.9.073.956.289.054.2-.082.354-.626.458A17.153,17.153,0,0,1,237.225,938.459Z" transform="translate(172.357 704.526)" fill="#e6aa37" fill-rule="evenodd"/>
    <path id="パス_12" data-name="パス 12" d="M333.25,936.966c1.014.073,2.033-.081,3.054.032.5.056.825.161.838.43.011.24-.131.427-.671.5a23.324,23.324,0,0,1-5.088.091,2.347,2.347,0,0,1-1.235-.431c-.5-.373-.378-.576.485-.631.682-.043,1.381-.016,2.072-.017C332.887,936.945,333.069,936.959,333.25,936.966Z" transform="translate(111.063 704.86)" fill="#e6aa37" fill-rule="evenodd"/>
    <path id="パス_14" data-name="パス 14" d="M84.532,939.148c.768,0,1.536,0,2.3,0a5.076,5.076,0,0,1,1.273.128c.315.081.482.209.483.38,0,.189-.279.277-.6.331a10.738,10.738,0,0,1-1.615.135c-1.392.02-2.774-.047-4.157-.1a2.442,2.442,0,0,1-.715-.12c-.387-.139-.821-.313-.719-.542s.7-.208,1.113-.215c.876-.015,1.754,0,2.631,0Z" transform="translate(269.226 702.903)" fill="#e6aa37" fill-rule="evenodd"/>
    <path id="パス_58871" data-name="パス 58871" d="M84.532,939.148c.768,0,1.536,0,2.3,0a5.076,5.076,0,0,1,1.273.128c.315.081.482.209.483.38,0,.189-.279.277-.6.331a10.738,10.738,0,0,1-1.615.135c-1.392.02-2.774-.047-4.157-.1a2.442,2.442,0,0,1-.715-.12c-.387-.139-.821-.313-.719-.542s.7-.208,1.113-.215c.876-.015,1.754,0,2.631,0Z" transform="translate(370.98 702.903)" fill="#e6aa37" fill-rule="evenodd"/>
  </g>
</svg>
