<svg xmlns="http://www.w3.org/2000/svg" width="255.188" height="50.959" viewBox="0 0 255.188 50.959">
  <path id="パス_2824" data-name="パス 2824" d="M385.946,3247.859c1.305,8.223,7.684,15.924,17.391,20.062,17.071,7.278,37.343,8.211,56.439,8.042,21.526-.19,50.649-3.324,70.243,5.187,4.686,2.035,8.65,5.479,9.347,9.591a2.576,2.576,0,0,1-.677,2.535,3.629,3.629,0,0,1-1.974.706c-4.318.4-7.072-4.15-5.289-7.208s6.1-4.683,10.177-5.847c13.288-3.794,27.452-5.3,41.314-7.562s27.862-5.441,39.173-12.021c6.55-3.811,12.069-8.97,15.288-14.749" transform="translate(-384.229 -3244.556)" fill="none" stroke="#deab4f" stroke-linecap="round" stroke-linejoin="round" stroke-width="3" opacity="0.309"/>
</svg>
