<svg xmlns="http://www.w3.org/2000/svg" width="241.812" height="50.945" viewBox="0 0 241.812 50.945">
  <path id="パス_3757" data-name="パス 3757" d="M385.946,3247.859c1.236,8.223,7.276,15.924,16.467,20.062,16.164,7.278,35.36,8.211,53.442,8.042,20.383-.19,47.959-3.324,66.512,5.187,4.438,2.035,8.191,5.479,8.851,9.591a2.675,2.675,0,0,1-.641,2.535,3.325,3.325,0,0,1-1.869.706,5.079,5.079,0,0,1-5.008-7.208c1.688-3.058,5.775-4.683,9.636-5.847,12.582-3.794,25.994-5.3,39.12-7.562s26.383-5.441,37.093-12.021c6.2-3.811,11.428-8.97,14.476-14.749" transform="translate(-384.24 -3244.569)" fill="none" stroke="#deab4f" stroke-linecap="round" stroke-linejoin="round" stroke-width="3" opacity="0.309"/>
</svg>
