<svg xmlns="http://www.w3.org/2000/svg" width="205.103" height="50.901" viewBox="0 0 205.103 50.901">
  <path id="パス_3523" data-name="パス 3523" d="M385.946,3247.859a26.776,26.776,0,0,0,13.933,20.062c13.677,7.278,29.919,8.211,45.219,8.042,17.246-.19,40.58-3.324,56.278,5.187,3.755,2.035,6.93,5.479,7.489,9.591a3.029,3.029,0,0,1-.543,2.535,2.577,2.577,0,0,1-1.582.706c-3.46.4-5.666-4.15-4.238-7.208s4.886-4.683,8.154-5.847c10.646-3.794,21.994-5.3,33.1-7.562s22.323-5.441,31.385-12.021a37.62,37.62,0,0,0,12.249-14.749" transform="translate(-384.269 -3244.614)" fill="none" stroke="#deab4f" stroke-linecap="round" stroke-linejoin="round" stroke-width="3" opacity="0.309"/>
</svg>
