<svg xmlns="http://www.w3.org/2000/svg" width="215.681" height="50.915" viewBox="0 0 215.681 50.915">
  <path id="パス_3290" data-name="パス 3290" d="M385.946,3247.859a26.829,26.829,0,0,0,14.664,20.062c14.393,7.278,31.486,8.211,47.588,8.042,18.15-.19,42.706-3.324,59.227,5.187,3.951,2.035,7.293,5.479,7.881,9.591a2.913,2.913,0,0,1-.571,2.535,2.78,2.78,0,0,1-1.664.706c-3.641.4-5.963-4.15-4.46-7.208s5.142-4.683,8.581-5.847c11.2-3.794,23.147-5.3,34.835-7.562s23.493-5.441,33.029-12.021a38.131,38.131,0,0,0,12.89-14.749" transform="translate(-384.26 -3244.601)" fill="none" stroke="#deab4f" stroke-linecap="round" stroke-linejoin="round" stroke-width="3" opacity="0.309"/>
</svg>
