<svg xmlns="http://www.w3.org/2000/svg" width="97.783" height="10.109" viewBox="0 0 97.783 10.109">
  <g id="グループ_583" data-name="グループ 583" transform="translate(-762.88 -2713)">
    <path id="パス_26" data-name="パス 26" d="M382.133,769.08c-.209.063-.278.278-.427.406-.058.05-.076.123-.2.106-.416-.059-.439-.075-.283-.468a2.6,2.6,0,0,1,.622-.874,7.329,7.329,0,0,1,2.04-1.439,3.244,3.244,0,0,1,3.841.593,3.018,3.018,0,0,1,.669,3.309,2.713,2.713,0,0,1-1.146,1.083,5.237,5.237,0,0,1-1.99.686,2.6,2.6,0,0,1-2.836-1.366,2.835,2.835,0,0,1-.29-1.793.377.377,0,0,0-.009-.254.607.607,0,0,0,.082-.008.094.094,0,0,0,.075-.087c0-.012-.013-.023-.02-.034a.472.472,0,0,0-.1.063A.221.221,0,0,0,382.133,769.08Zm2.934-1.1a.456.456,0,0,1-.3-.037.879.879,0,0,0-.883.2c-.1.081-.188.177-.284.264a1.9,1.9,0,0,0-.385,2.6,1.347,1.347,0,0,0,1.2.782,4.03,4.03,0,0,0,2.938-1.014,1.537,1.537,0,0,0,.5-.931,2.839,2.839,0,0,0-.272-1.717,1.313,1.313,0,0,0-.5-.586,2.5,2.5,0,0,0-1.55-.436,2.327,2.327,0,0,0-1.258.382A1.217,1.217,0,0,1,385.067,767.98Z" transform="translate(383.865 1948.597)" fill="#e6aa37" stroke="#e6aa37" stroke-width="4" fill-rule="evenodd"/>
    <path id="パス_27" data-name="パス 27" d="M382.133,769.08c-.209.063-.278.278-.427.406-.058.05-.076.123-.2.106-.416-.059-.439-.075-.283-.468a2.6,2.6,0,0,1,.622-.874,7.329,7.329,0,0,1,2.04-1.439,3.244,3.244,0,0,1,3.841.593,3.018,3.018,0,0,1,.669,3.309,2.713,2.713,0,0,1-1.146,1.083,5.237,5.237,0,0,1-1.99.686,2.6,2.6,0,0,1-2.836-1.366,2.835,2.835,0,0,1-.29-1.793.377.377,0,0,0-.009-.254.607.607,0,0,0,.082-.008.094.094,0,0,0,.075-.087c0-.012-.013-.023-.02-.034a.472.472,0,0,0-.1.063A.221.221,0,0,0,382.133,769.08Zm2.934-1.1a.456.456,0,0,1-.3-.037.879.879,0,0,0-.883.2c-.1.081-.188.177-.284.264a1.9,1.9,0,0,0-.385,2.6,1.347,1.347,0,0,0,1.2.782,4.03,4.03,0,0,0,2.938-1.014,1.537,1.537,0,0,0,.5-.931,2.839,2.839,0,0,0-.272-1.717,1.313,1.313,0,0,0-.5-.586,2.5,2.5,0,0,0-1.55-.436,2.327,2.327,0,0,0-1.258.382A1.217,1.217,0,0,1,385.067,767.98Z" transform="translate(426.865 1948.597)" fill="#edb46c" stroke="#edb46b" stroke-width="4" fill-rule="evenodd"/>
    <path id="パス_28" data-name="パス 28" d="M382.133,769.08c-.209.063-.278.278-.427.406-.058.05-.076.123-.2.106-.416-.059-.439-.075-.283-.468a2.6,2.6,0,0,1,.622-.874,7.329,7.329,0,0,1,2.04-1.439,3.244,3.244,0,0,1,3.841.593,3.018,3.018,0,0,1,.669,3.309,2.713,2.713,0,0,1-1.146,1.083,5.237,5.237,0,0,1-1.99.686,2.6,2.6,0,0,1-2.836-1.366,2.835,2.835,0,0,1-.29-1.793.377.377,0,0,0-.009-.254.607.607,0,0,0,.082-.008.094.094,0,0,0,.075-.087c0-.012-.013-.023-.02-.034a.472.472,0,0,0-.1.063A.221.221,0,0,0,382.133,769.08Zm2.934-1.1a.456.456,0,0,1-.3-.037.879.879,0,0,0-.883.2c-.1.081-.188.177-.284.264a1.9,1.9,0,0,0-.385,2.6,1.347,1.347,0,0,0,1.2.782,4.03,4.03,0,0,0,2.938-1.014,1.537,1.537,0,0,0,.5-.931,2.839,2.839,0,0,0-.272-1.717,1.313,1.313,0,0,0-.5-.586,2.5,2.5,0,0,0-1.55-.436,2.327,2.327,0,0,0-1.258.382A1.217,1.217,0,0,1,385.067,767.98Z" transform="translate(469.865 1948.597)" fill="#ef9139" stroke="#ef9139" stroke-width="4" fill-rule="evenodd"/>
  </g>
</svg>
