<svg xmlns="http://www.w3.org/2000/svg" xmlns:xlink="http://www.w3.org/1999/xlink" width="150" height="38" viewBox="0 0 150 38">
  <defs>
    <clipPath id="clip-path">
      <rect id="長方形_16" data-name="長方形 16" width="150" height="38" transform="translate(738 2749)" fill="#fff" stroke="#707070" stroke-width="1"/>
    </clipPath>
  </defs>
  <g id="マスクグループ_10" data-name="マスクグループ 10" transform="translate(-738 -2749)" clip-path="url(#clip-path)">
    <path id="パス_29" data-name="パス 29" d="M630.9,279.321c4.4-.331,7.925,1.584,11.476,3.44a2.685,2.685,0,0,1,.522.354c2.553,2.246,5.616,2.142,8.986,1.244a20.665,20.665,0,0,0,7.221-3.494c5.181-3.928,11.227-4.154,17.792-2.72a37.393,37.393,0,0,1,10.068,3.7c3.407,1.874,6.706,1.568,10.052.043q2.5-1.142,5.041-2.239c4.486-1.941,9.123-1.784,13.805-.675a74.91,74.91,0,0,1,9.712,3.1,10.257,10.257,0,0,0,9.6-.627,22.481,22.481,0,0,1,6.905-2.92,18.243,18.243,0,0,1,8.96.184c3.006.835,6.048,1.6,8.9,2.717a11.247,11.247,0,0,0,9.043-.033,47.163,47.163,0,0,0,10.921-6,2.482,2.482,0,0,1,2.7-.359c3.108,1.159,3.046,2.848.917,4.228a60.15,60.15,0,0,1-15.672,7.284,7.511,7.511,0,0,1-4.542-.076c-3.541-1.1-7.07-2.221-10.614-3.313a18.23,18.23,0,0,0-5.413-1.052,15.273,15.273,0,0,0-7.351,2.066,30.59,30.59,0,0,1-5.2,2.362,11.181,11.181,0,0,1-7.044.032c-3.013-.979-5.972-2.049-8.978-3.041a25.759,25.759,0,0,0-6.246-1.438,17.125,17.125,0,0,0-8.939,1.572,46.736,46.736,0,0,1-6.987,2.839,12.545,12.545,0,0,1-8.354-.317,29.9,29.9,0,0,1-4.409-2.014c-3.742-2.156-8.12-3-12.683-3.307a9.793,9.793,0,0,0-5.87,1.492c-1.627,1.014-3.253,2.03-4.913,3.013a21.8,21.8,0,0,1-11.855,3.19,13.39,13.39,0,0,1-6.691-2.241c-1.811-1.019-3.457-2.188-5.309-3.191a10.253,10.253,0,0,0-9,.2A36.377,36.377,0,0,0,623,286.18a2.831,2.831,0,0,1-1.937.9,3.593,3.593,0,0,1-2.464-.864c-.573-.689.162-1.221.679-1.718a26.737,26.737,0,0,1,6.385-4.387C627,279.421,627.854,279.337,630.9,279.321Z" transform="translate(139.609 2489.101)" fill="#e6aa37" fill-rule="evenodd"/>
  </g>
</svg>
