<svg xmlns="http://www.w3.org/2000/svg" xmlns:xlink="http://www.w3.org/1999/xlink" width="219.526" height="87.756" viewBox="0 0 219.526 87.756">
  <defs>
    <clipPath id="clip-path">
      <rect id="長方形_33" data-name="長方形 33" width="22.75" height="13" transform="translate(737 3806)" fill="#fff" stroke="#707070" stroke-width="1"/>
    </clipPath>
  </defs>
  <g id="グループ_677" data-name="グループ 677" transform="translate(-81 -4178.244)">
    <g id="マスクグループ_839" data-name="マスクグループ 839" transform="translate(-561 423)" clip-path="url(#clip-path)">
      <path id="パス_58883" data-name="パス 58883" d="M376.51,374.433c-.684-.283-1.364-.573-2.052-.847a2.1,2.1,0,0,1-.66-.418.8.8,0,0,1-.26-.468c-.049-.306.046-.422.348-.378a3.279,3.279,0,0,1,.585.15c.919.312,1.84.617,2.742.977a9.626,9.626,0,0,0,2.532.594,1.751,1.751,0,0,1,1.368,1.137.548.548,0,0,1-.454.809,12.675,12.675,0,0,0-2.761.672c-1.071.368-2.159.679-3.253.97a.886.886,0,0,1-.852-.168c-.341-.285-.33-.608.061-.817.5-.264,1.015-.486,1.531-.729-.131-.2-.326-.124-.492-.127-2.831-.049-5.661,0-8.491.073-3.518.089-7.037.088-10.556.068q-4.762-.026-9.521.1c-3.659.1-7.316.272-10.974.41-1.092.041-2.178-.127-3.272-.1a1.251,1.251,0,0,1-1.093-.555c-.186-.277-.1-.469.239-.487a7.765,7.765,0,0,1,1.273.005,26.838,26.838,0,0,0,4,0c1.556-.054,3.111-.129,4.666-.187,2.22-.083,4.44-.179,6.661-.232,2.868-.069,5.736-.111,8.605-.1q3.97.011,7.939-.024c1.515-.016,3.028-.091,4.542-.132,2.343-.064,4.687-.079,7.031-.07h.541Z" transform="translate(376.211 3438.237)" fill="#e6aa37" fill-rule="evenodd"/>
    </g>
    <text id="ヒスタミン" transform="translate(108.451 4265)" fill="#e6aa37" font-size="9" font-family="HiraginoSans-W6, Hiragino Sans" letter-spacing="-0.05em"><tspan x="0" y="0">ヒスタミン</tspan></text>
    <path id="パス_58884" data-name="パス 58884" d="M2829.123,323.642a2.444,2.444,0,0,0-.963.2.109.109,0,0,0-.017.007,2.458,2.458,0,0,0-.525.312,9.563,9.563,0,0,1-7.494.984,19.962,19.962,0,0,0-1.479-6.676,7.4,7.4,0,0,1,5.556-1.476,1.89,1.89,0,1,0-.846-3.14.071.071,0,0,0-.01.01,1.88,1.88,0,0,0-.281.378,7.382,7.382,0,0,1-5.014,2.919,20.071,20.071,0,0,0-3.124-4.56,9.563,9.563,0,0,1,5.981-4.6,2.452,2.452,0,1,0-2.566-3.349.131.131,0,0,0-.006.017,2.446,2.446,0,0,0-.15.592,9.563,9.563,0,0,1-4.6,5.995,20.075,20.075,0,0,0-5.767-3.675,7.4,7.4,0,0,1,2.885-4.973,1.89,1.89,0,1,0-2.819-1.622.076.076,0,0,0,0,.014,1.888,1.888,0,0,0,.068.466,7.381,7.381,0,0,1-1.48,5.609,19.987,19.987,0,0,0-5.433-1.015,9.559,9.559,0,0,1,.976-7.481,2.452,2.452,0,1,0-4.182-.554.1.1,0,0,0,.007.017,2.457,2.457,0,0,0,.312.525,9.564,9.564,0,0,1,.984,7.494,19.961,19.961,0,0,0-6.676,1.479,7.4,7.4,0,0,1-1.476-5.556,1.89,1.89,0,1,0-3.14.846.075.075,0,0,0,.01.01,1.884,1.884,0,0,0,.377.281,7.383,7.383,0,0,1,2.92,5.014,20.09,20.09,0,0,0-4.56,3.123,9.56,9.56,0,0,1-4.6-5.981,2.451,2.451,0,1,0-3.349,2.566l.017.006a2.452,2.452,0,0,0,.592.15,9.564,9.564,0,0,1,5.994,4.6,20.077,20.077,0,0,0-3.675,5.767,7.4,7.4,0,0,1-4.973-2.885,1.89,1.89,0,1,0-1.622,2.819h.014a1.887,1.887,0,0,0,.466-.068,7.381,7.381,0,0,1,5.609,1.48,20,20,0,0,0-1.015,5.433,9.56,9.56,0,0,1-7.481-.977,2.452,2.452,0,1,0-.554,4.182l.017-.007a2.445,2.445,0,0,0,.524-.312,9.563,9.563,0,0,1,7.494-.984,19.967,19.967,0,0,0,1.479,6.676,7.4,7.4,0,0,1-5.556,1.476,1.89,1.89,0,1,0,.846,3.14l.01-.01a1.918,1.918,0,0,0,.281-.378,7.38,7.38,0,0,1,5.014-2.92,20.085,20.085,0,0,0,3.123,4.56,9.56,9.56,0,0,1-5.981,4.6,2.451,2.451,0,1,0,2.566,3.349.083.083,0,0,0,.006-.017,2.46,2.46,0,0,0,.151-.592,9.562,9.562,0,0,1,4.6-5.995,20.077,20.077,0,0,0,5.766,3.675,7.4,7.4,0,0,1-2.885,4.973,1.89,1.89,0,1,0,2.819,1.622.109.109,0,0,0,0-.014,1.876,1.876,0,0,0-.069-.466,7.382,7.382,0,0,1,1.48-5.609,19.99,19.99,0,0,0,5.434,1.015,9.562,9.562,0,0,1-.977,7.481,2.452,2.452,0,1,0,4.183.554.164.164,0,0,0-.008-.017,2.44,2.44,0,0,0-.312-.525,9.564,9.564,0,0,1-.983-7.494,19.969,19.969,0,0,0,6.676-1.479,3.846,3.846,0,0,0,1.309-.595c1.665-.83-2.095-5.055,1.166-8.449,3.479-3,7.521.348,8.413-1.787a7.4,7.4,0,0,1,4.972,2.885,1.89,1.89,0,1,0,1.622-2.819h-.014a1.887,1.887,0,0,0-.466.069,7.383,7.383,0,0,1-5.609-1.48,19.99,19.99,0,0,0,1.015-5.434,9.561,9.561,0,0,1,7.481.977,2.452,2.452,0,1,0,1.516-4.379Zm-27.074-10.3a1.177,1.177,0,1,1-1.177,1.177A1.177,1.177,0,0,1,2802.049,313.342Zm-1.962,7.553a1.177,1.177,0,1,1-1.177,1.177A1.177,1.177,0,0,1,2800.087,320.895Zm-13.144-2.158a2.158,2.158,0,1,1-2.158,2.158A2.158,2.158,0,0,1,2786.943,318.737Zm.294,15.695a2.158,2.158,0,1,1,2.158-2.158A2.158,2.158,0,0,1,2787.237,334.432Zm2.747-8.73a1.177,1.177,0,1,1,1.177-1.177A1.177,1.177,0,0,1,2789.984,325.7Zm1.177-7.946a1.177,1.177,0,1,1,1.177,1.177A1.177,1.177,0,0,1,2791.161,317.756Zm1.57,18.049a1.177,1.177,0,1,1,1.177-1.177A1.177,1.177,0,0,1,2792.73,335.805Zm1.079-23.444a2.158,2.158,0,1,1,2.158,2.158A2.158,2.158,0,0,1,2793.809,312.361Zm1.57,13.733a1.177,1.177,0,1,1,1.177,1.177A1.177,1.177,0,0,1,2795.379,326.094Zm3.335,15.008a2.158,2.158,0,1,1,2.158-2.158A2.158,2.158,0,0,1,2798.714,341.1Zm1.373-12.85a1.177,1.177,0,1,1,1.177,1.177A1.177,1.177,0,0,1,2800.087,328.252Zm2.453,7.357a1.177,1.177,0,1,1,1.177-1.177A1.177,1.177,0,0,1,2802.54,335.609Zm5.4-22.954a1.177,1.177,0,1,1-1.177,1.177A1.177,1.177,0,0,1,2807.935,312.655Zm1.275,13.439a1.177,1.177,0,1,1-1.177-1.177A1.177,1.177,0,0,1,2809.21,326.094Zm.981-6.18a2.158,2.158,0,1,1,2.158,2.158A2.158,2.158,0,0,1,2810.191,319.914Zm3.924,9.809a1.177,1.177,0,1,1,1.177-1.177A1.177,1.177,0,0,1,2814.115,329.723Z" transform="translate(-2687.6 3885.733)" fill="#e6aa37"/>
    <circle id="楕円形_49" data-name="楕円形 49" cx="0.5" cy="0.5" r="0.5" transform="translate(127.451 4226)" fill="#e6aa37"/>
    <circle id="楕円形_50" data-name="楕円形 50" cx="1" cy="1" r="1" transform="translate(125.451 4231)" fill="#e6aa37"/>
    <ellipse id="楕円形_51" data-name="楕円形 51" cx="1" cy="1.5" rx="1" ry="1.5" transform="translate(131.451 4230)" fill="#e6aa37"/>
    <circle id="楕円形_52" data-name="楕円形 52" cx="0.5" cy="0.5" r="0.5" transform="translate(130.451 4236)" fill="#e6aa37"/>
    <line id="線_434" data-name="線 434" y2="11.302" transform="translate(130.451 4242)" fill="none" stroke="#eae4d9" stroke-width="1"/>
    <g id="グループ_584" data-name="グループ 584" transform="translate(-962.803 435.094)">
      <g id="グループ_355" data-name="グループ 355" transform="translate(1201.719 3743.151)">
        <g id="グループ_352" data-name="グループ 352" transform="translate(0 0)">
          <g id="グループ_326" data-name="グループ 326" transform="translate(0.485 0.486)">
            <g id="グループ_323" data-name="グループ 323" transform="translate(19.104 61.814)">
              <path id="パス_2424" data-name="パス 2424" d="M321.244,608.966a5.672,5.672,0,0,0-.788-5.853,19.38,19.38,0,0,1-1.439-1.823,2.1,2.1,0,0,1-.09-2.2,2.818,2.818,0,0,1,.226-.271l.011.007a8.369,8.369,0,0,1,1.862-2.045l.709-.62c.439-.289.88-.572,1.324-.853a111.453,111.453,0,0,1,22.3-10.856,1.834,1.834,0,0,1,1.1-.147c.551.16.817.767,1.013,1.3L349,589.788l.982,2.308q4.307,7.384,8.613,14.764" transform="translate(-318.653 -584.268)" fill="#fff"/>
            </g>
            <g id="グループ_324" data-name="グループ 324">
              <path id="パス_2425" data-name="パス 2425" d="M208.186,224.017a6.693,6.693,0,0,0,3.617,5.916,10.209,10.209,0,0,1-6.975-3.118c-.1-.108-.205-.225-.3-.344a7.531,7.531,0,0,0,1.36,3.017l-.144.084a3.253,3.253,0,0,1-1.361.053,3.459,3.459,0,0,1-2.258-1.41l-.031.023a9.661,9.661,0,0,1,.04-11.1l-.286-.187a6.5,6.5,0,0,1,1.248-3.559l0,0a20.014,20.014,0,0,1,15.257-8.343,6.511,6.511,0,0,1,4.643-2.314,22.549,22.549,0,0,1,12.592-.583,16.552,16.552,0,0,1,10.949,8.924l.082-.037a5.592,5.592,0,0,1,3.739.423,7.13,7.13,0,0,1,1.26.307c6.077,2.02,9.042,7.154,9.386,13.243h.006a12.125,12.125,0,0,1-.675,3.154l-.039,0a18.775,18.775,0,0,1-2.531,11.058l.026.016a13,13,0,0,1-2.3,3.362,15.06,15.06,0,0,1-.966,3.068,20.174,20.174,0,0,1-1.638,2.7c-2.1,3.122-4.062,6.508-4.446,10.253l-.255.021c-.023-.016-.045-.031-.066-.047-.089-.063-.178-.128-.265-.194a14.722,14.722,0,0,1-2.867-2.846c-.131-.052-.258-.107-.386-.165a9.979,9.979,0,0,1-4.171-3.533l-.058.029a21.129,21.129,0,0,1-1.815-4.75,8.188,8.188,0,0,1-.733-2.164,3.882,3.882,0,0,0-1.235-2.24,9.858,9.858,0,0,0-.042-1.965,4.012,4.012,0,0,0-1.148-2.631,3,3,0,0,0-1.353-.627,3.772,3.772,0,0,0-1.2-.047,5.6,5.6,0,0,0-4.829-1.279l-.04-.073a5.276,5.276,0,0,0-.982.67,6.422,6.422,0,0,0-2.839,2.237l-.094-.006a6.745,6.745,0,0,1-.116.917,8.69,8.69,0,0,0-2.679-4.183,8.425,8.425,0,0,0-2.366-4.154c-.221-.21-.454-.409-.693-.6l-.123.153a10.341,10.341,0,0,0-2.191-1.2,27.59,27.59,0,0,1-2.86-1.508A14.134,14.134,0,0,1,208.186,224.017Z" transform="translate(-200.361 -201.512)" fill="#e6aa37"/>
            </g>
            <g id="グループ_325" data-name="グループ 325" transform="translate(0.034 22.506)">
              <path id="パス_2426" data-name="パス 2426" d="M211.98,346.786a6.693,6.693,0,0,1-3.618-5.916A14.134,14.134,0,0,0,213.2,345.3a27.583,27.583,0,0,0,2.86,1.508,10.342,10.342,0,0,1,2.192,1.2l.123-.153c.239.192.472.391.693.6a8.425,8.425,0,0,1,2.366,4.154,8.691,8.691,0,0,1,2.679,4.183,6.75,6.75,0,0,0,.116-.917l.094.006a6.422,6.422,0,0,1,2.839-2.237,5.277,5.277,0,0,1,.982-.67l.04.073a5.6,5.6,0,0,1,4.829,1.279,3.772,3.772,0,0,1,1.2.047,3,3,0,0,1,1.353.627,4.012,4.012,0,0,1,1.148,2.631,9.859,9.859,0,0,1,.042,1.965,3.882,3.882,0,0,1,1.235,2.24,8.188,8.188,0,0,0,.733,2.164,21.127,21.127,0,0,0,1.815,4.75l.058-.029a9.979,9.979,0,0,0,4.171,3.534c.128.058.255.113.386.165a14.723,14.723,0,0,0,2.867,2.846,8.274,8.274,0,0,0-.439,2.166l-.14-.008a9.588,9.588,0,0,0,.249,2.8l-.242,0a1.834,1.834,0,0,0-1.1.147,111.445,111.445,0,0,0-22.3,10.856l-.2-.32c-.8-1.73-1.169-3.629-1.9-5.387a6.789,6.789,0,0,0-3.764-4.066,10.416,10.416,0,0,0-4.538,0,6.121,6.121,0,0,1-4.409-.7A4.544,4.544,0,0,1,207.621,378a10.706,10.706,0,0,1-.182-2.395l-.129,0c-.373-1.426-.633-2.8-.914-4.133-.6-2.841-1.284-5.459-3.338-7.849l-.354.011a5.02,5.02,0,0,1-1.61-1.387,2.195,2.195,0,0,1-.522-1.331c.024-.962.967-1.591,1.7-2.216a7.268,7.268,0,0,0,2.513-5.268l.048,0a11.817,11.817,0,0,1-.229-1.767,51.3,51.3,0,0,1-.045-5.187,3.253,3.253,0,0,0,1.361-.053l.144-.084a7.531,7.531,0,0,1-1.36-3.017c.1.12.2.236.3.344A10.209,10.209,0,0,0,211.98,346.786Zm-2.636,8.808a1.488,1.488,0,0,0-.275-1.242c-.307-.244-.455-.026-.522.307a2.764,2.764,0,0,0,0,1.179.48.48,0,0,0,.141.258C208.977,356.33,209.305,355.823,209.344,355.594Z" transform="translate(-200.571 -340.87)" fill="#fff"/>
            </g>
          </g>
          <g id="グループ_351" data-name="グループ 351" transform="translate(0)">
            <g id="グループ_327" data-name="グループ 327" transform="translate(0.034 35.073)">
              <path id="パス_2427" data-name="パス 2427" d="M200.188,426.851a.482.482,0,0,1-.231-.059,5.526,5.526,0,0,1-1.766-1.522,2.608,2.608,0,0,1-.619-1.635,3.3,3.3,0,0,1,1.569-2.322c.1-.084.2-.166.3-.249a6.786,6.786,0,0,0,2.343-4.912.485.485,0,0,1,.484-.472h.013a.485.485,0,0,1,.472.5,7.77,7.77,0,0,1-2.683,5.624c-.1.086-.206.173-.313.261-.618.508-1.2.988-1.216,1.6a1.7,1.7,0,0,0,.425,1.028,4.549,4.549,0,0,0,1.454,1.252.485.485,0,0,1-.231.911Z" transform="translate(-197.572 -415.68)" fill="#e6aa37"/>
            </g>
            <g id="グループ_330" data-name="グループ 330" transform="translate(6.899 56.403)">
              <path id="パス_2430" data-name="パス 2430" d="M256.974,564.862a.485.485,0,0,1-.44-.282,24.069,24.069,0,0,1-1.071-2.973c-.252-.81-.512-1.647-.839-2.431-.477-1.145-1.563-3.159-3.47-3.793a8.584,8.584,0,0,0-3.761-.051c-.189.025-.378.049-.566.072a6.6,6.6,0,0,1-4.756-.791,5.014,5.014,0,0,1-1.8-3.031,11.2,11.2,0,0,1-.193-2.5c.005-.286.013-.569.021-.85a.485.485,0,0,1,.969.028c-.008.278-.016.557-.021.838a10.293,10.293,0,0,0,.172,2.285,4.056,4.056,0,0,0,1.426,2.454,5.76,5.76,0,0,0,4.062.608c.185-.022.371-.047.557-.071a9.293,9.293,0,0,1,4.192.092c2.158.717,3.4,2.755,4.058,4.34.344.826.612,1.685.87,2.516a23.34,23.34,0,0,0,1.025,2.854.485.485,0,0,1-.439.688Z" transform="translate(-240.079 -547.759)" fill="#e6aa37"/>
            </g>
            <g id="グループ_331" data-name="グループ 331" transform="translate(28.267 35.928)">
              <path id="パス_2431" data-name="パス 2431" d="M374.474,435.018a2.69,2.69,0,0,1-1.933-.726.484.484,0,1,1,.676-.694c.711.692,2.01.5,2.982,0a8.3,8.3,0,0,0,4.153-6.878,9.386,9.386,0,0,0-.04-1.871,3.49,3.49,0,0,0-.982-2.321,2.519,2.519,0,0,0-1.135-.52,3.277,3.277,0,0,0-1.05-.041,3.47,3.47,0,0,0-1.937.87.485.485,0,0,1-.654-.715,4.446,4.446,0,0,1,2.478-1.117,4.234,4.234,0,0,1,1.357.054,3.486,3.486,0,0,1,1.571.733,4.381,4.381,0,0,1,1.315,2.94,10.354,10.354,0,0,1,.044,2.063,9.265,9.265,0,0,1-4.678,7.667A4.917,4.917,0,0,1,374.474,435.018Z" transform="translate(-372.394 -420.977)" fill="#e6aa37"/>
            </g>
            <g id="グループ_332" data-name="グループ 332" transform="translate(29.322 41.67)">
              <path id="パス_2432" data-name="パス 2432" d="M379.409,458.762a.485.485,0,0,1-.283-.878,7.909,7.909,0,0,1,3.194-1.346.484.484,0,1,1,.171.954,6.931,6.931,0,0,0-2.8,1.18A.482.482,0,0,1,379.409,458.762Z" transform="translate(-378.924 -456.53)" fill="#e6aa37"/>
            </g>
            <g id="グループ_334" data-name="グループ 334" transform="translate(0 15.311)">
              <path id="パス_2434" data-name="パス 2434" d="M200.33,306.646a.483.483,0,0,1-.36-.16,9.98,9.98,0,0,1-.791-1,10.145,10.145,0,0,1,.042-11.652c.079-.113.163-.225.248-.336a.484.484,0,0,1,.768.591c-.076.1-.151.2-.223.3a9.176,9.176,0,0,0-.039,10.543,9.014,9.014,0,0,0,.714.9.485.485,0,0,1-.359.809Z" transform="translate(-197.361 -293.309)" fill="#e6aa37"/>
            </g>
            <g id="グループ_335" data-name="グループ 335" transform="translate(4.006 21.543)">
              <path id="パス_2435" data-name="パス 2435" d="M224.618,339.838a.483.483,0,0,1-.356-.156c-.17-.184-.331-.376-.48-.573a8.037,8.037,0,0,1-1.448-3.211,7.886,7.886,0,0,1,.091-3.642.485.485,0,1,1,.936.253,6.913,6.913,0,0,0-.078,3.192,7.063,7.063,0,0,0,1.271,2.822c.13.172.271.34.419.5a.484.484,0,0,1-.356.813Z" transform="translate(-222.165 -331.899)" fill="#e6aa37"/>
            </g>
            <g id="グループ_336" data-name="グループ 336" transform="translate(7.825 22.321)">
              <path id="パス_2436" data-name="パス 2436" d="M250.1,343.882a.481.481,0,0,1-.2-.045q-.1-.048-.208-.1a7.157,7.157,0,0,1-3.881-6.352c0-.067,0-.137,0-.207a.485.485,0,0,1,.968.052c0,.053,0,.105,0,.16a6.173,6.173,0,0,0,3.35,5.482c.062.031.118.059.175.085a.484.484,0,0,1-.2.924Z" transform="translate(-245.812 -336.72)" fill="#e6aa37"/>
            </g>
            <g id="グループ_337" data-name="グループ 337" transform="translate(13.658 24.057)">
              <path id="パス_2437" data-name="パス 2437" d="M289.876,360.482a.484.484,0,0,1-.485-.483,7.718,7.718,0,0,0-.208-1.75,7.976,7.976,0,0,0-2.228-3.914c-.193-.183-.41-.371-.662-.574-.21-.17-.422-.334-.634-.5a16.173,16.173,0,0,1-1.456-1.22,8.392,8.392,0,0,1-2.256-3.974.484.484,0,0,1,.942-.227,7.412,7.412,0,0,0,1.992,3.509,15.21,15.21,0,0,0,1.37,1.145c.218.169.436.337.65.51.271.218.508.423.721.626a8.956,8.956,0,0,1,2.5,4.394,8.678,8.678,0,0,1,.234,1.97.484.484,0,0,1-.483.486Z" transform="translate(-281.934 -347.47)" fill="#e6aa37"/>
            </g>
            <g id="グループ_338" data-name="グループ 338" transform="translate(22.936 33.825)">
              <path id="パス_2438" data-name="パス 2438" d="M340.448,413.792a.484.484,0,0,1-.473-.592c.019-.084.039-.168.053-.253a6.368,6.368,0,0,0,.11-.861,6.729,6.729,0,0,0-.7-3.434.485.485,0,0,1,.865-.437,7.7,7.7,0,0,1,.805,3.928,7.276,7.276,0,0,1-.124.982c-.016.091-.039.19-.061.29A.484.484,0,0,1,340.448,413.792Z" transform="translate(-339.383 -407.949)" fill="#e6aa37"/>
            </g>
            <g id="グループ_339" data-name="グループ 339" transform="translate(26.623 33.941)">
              <path id="パス_2439" data-name="パス 2439" d="M362.7,410.975a.484.484,0,0,1-.317-.851,5.776,5.776,0,0,1,1.072-.732,6.1,6.1,0,0,1,4.182-.575.485.485,0,0,1-.216.945,5.126,5.126,0,0,0-3.51.486,4.807,4.807,0,0,0-.893.609A.482.482,0,0,1,362.7,410.975Z" transform="translate(-362.214 -408.672)" fill="#e6aa37"/>
            </g>
            <g id="グループ_340" data-name="グループ 340" transform="translate(2.733 3.522)">
              <path id="パス_2440" data-name="パス 2440" d="M214.768,229.64a.485.485,0,0,1-.4-.763A20.584,20.584,0,0,1,230,220.328c.234-.011.447-.017.653-.018h0a.485.485,0,0,1,0,.969c-.193,0-.394.007-.616.017a19.6,19.6,0,0,0-14.882,8.137A.484.484,0,0,1,214.768,229.64Z" transform="translate(-214.284 -220.31)" fill="#e6aa37"/>
            </g>
            <g id="グループ_341" data-name="グループ 341" transform="translate(20.635)">
              <path id="パス_2441" data-name="パス 2441" d="M351.275,209.311a.485.485,0,0,1-.448-.3c-.035-.086-.074-.172-.112-.258a15.966,15.966,0,0,0-10.63-8.653,21.99,21.99,0,0,0-12.32.575c-.655.211-1.315.453-1.962.72a.484.484,0,0,1-.369-.9c.671-.277,1.355-.528,2.034-.746a22.953,22.953,0,0,1,12.863-.59,16.94,16.94,0,0,1,11.269,9.2c.042.093.084.188.123.283a.485.485,0,0,1-.448.669Z" transform="translate(-325.133 -198.505)" fill="#e6aa37"/>
            </g>
            <g id="グループ_342" data-name="グループ 342" transform="translate(48.102 9.901)">
              <path id="パス_2442" data-name="パス 2442" d="M508.236,274.38a.484.484,0,0,1-.483-.457c-.364-6.44-3.58-10.99-9.055-12.81a6.588,6.588,0,0,0-1.174-.287,3.381,3.381,0,0,0-1.659.125.484.484,0,1,1-.333-.91,4.325,4.325,0,0,1,2.129-.175,7.512,7.512,0,0,1,1.343.327,13.4,13.4,0,0,1,7.092,5.285,16.476,16.476,0,0,1,2.625,8.39.484.484,0,0,1-.456.511Z" transform="translate(-495.213 -259.81)" fill="#e6aa37"/>
            </g>
            <g id="グループ_343" data-name="グループ 343" transform="translate(56.674 25.839)">
              <path id="パス_2443" data-name="パス 2443" d="M548.778,372.479a.485.485,0,0,1-.4-.762c.243-.349.482-.72.709-1.1a18.289,18.289,0,0,0,2.464-10.769c-.02-.245-.048-.506-.086-.8a.484.484,0,1,1,.961-.125c.04.308.07.584.091.843a19.265,19.265,0,0,1-2.6,11.344c-.24.4-.491.795-.748,1.163A.484.484,0,0,1,548.778,372.479Z" transform="translate(-548.294 -358.499)" fill="#e6aa37"/>
            </g>
            <g id="グループ_344" data-name="グループ 344" transform="translate(48.075 40.333)">
              <path id="パス_2444" data-name="パス 2444" d="M495.529,466l-.05,0a.485.485,0,0,1-.432-.531c.4-3.893,2.412-7.335,4.526-10.475l.156-.231a17.981,17.981,0,0,0,1.445-2.4,14.666,14.666,0,0,0,.932-2.971c.053-.231.1-.461.152-.69l.015-.068a.484.484,0,1,1,.947.205l-.015.068c-.05.233-.1.467-.155.7a15.522,15.522,0,0,1-1,3.165,18.671,18.671,0,0,1-1.52,2.533l-.155.23c-2.044,3.035-3.988,6.351-4.366,10.032A.484.484,0,0,1,495.529,466Z" transform="translate(-495.044 -448.249)" fill="#e6aa37"/>
            </g>
            <g id="グループ_345" data-name="グループ 345" transform="translate(21.339 61.815)">
              <path id="パス_2445" data-name="パス 2445" d="M367.278,604.613l-.013-.022-8.613-14.764a.559.559,0,0,1-.027-.054l-.982-2.308-.009-.024-1.521-4.176c-.17-.467-.371-.912-.693-1.005a1.467,1.467,0,0,0-.8.138,111.019,111.019,0,0,0-22.207,10.808c-.493.312-.924.589-1.317.848q-.424.277-.843.556a.485.485,0,0,1-.538-.806q.424-.282.851-.56c.4-.26.832-.541,1.33-.856a111.987,111.987,0,0,1,22.4-10.9,2.285,2.285,0,0,1,1.4-.156c.838.244,1.172,1.163,1.333,1.6l1.517,4.164.965,2.268,8.61,14.759" transform="translate(-329.494 -581.271)" fill="#e6aa37"/>
            </g>
            <g id="グループ_346" data-name="グループ 346" transform="translate(19.101 76.368)">
              <path id="パス_2446" data-name="パス 2446" d="M318.27,681.815a5.175,5.175,0,0,0-.732-5.367c-.167-.223-.351-.434-.546-.657a7.8,7.8,0,0,1-.925-1.215,2.564,2.564,0,0,1-.067-2.719,3.235,3.235,0,0,1,.264-.319.485.485,0,0,1,.718.651,2.422,2.422,0,0,0-.188.224,1.649,1.649,0,0,0,.113,1.678,6.98,6.98,0,0,0,.816,1.062c.2.227.4.461.591.713a6.185,6.185,0,0,1,.844,6.338" transform="translate(-315.636 -671.38)" fill="#e6aa37"/>
            </g>
            <g id="グループ_347" data-name="グループ 347" transform="translate(26.762 74.665)">
              <path id="パス_2447" data-name="パス 2447" d="M363.559,668.437a.485.485,0,0,1-.281-.88,57.831,57.831,0,0,1,12.364-6.686.485.485,0,1,1,.354.9,56.863,56.863,0,0,0-12.157,6.573A.482.482,0,0,1,363.559,668.437Z" transform="translate(-363.074 -660.839)" fill="#e6aa37"/>
            </g>
            <g id="グループ_348" data-name="グループ 348" transform="translate(46.892 58.676)">
              <path id="パス_2448" data-name="パス 2448" d="M488.471,565.972A.484.484,0,0,1,488,565.6a10.053,10.053,0,0,1-.261-2.939c.007-.13.017-.263.031-.4a.485.485,0,0,1,.964.1c-.012.117-.021.233-.027.351a9.092,9.092,0,0,0,.236,2.66.485.485,0,0,1-.472.6Z" transform="translate(-487.722 -561.83)" fill="#e6aa37"/>
            </g>
            <g id="グループ_349" data-name="グループ 349" transform="translate(37.943 43.981)">
              <path id="パス_2449" data-name="パス 2449" d="M435.17,479.411c-.251-.486-.506-.979-.751-1.471a21.685,21.685,0,0,1-1.855-4.861,11.808,11.808,0,0,1-.259-1.717.484.484,0,1,1,.966-.073,10.824,10.824,0,0,0,.238,1.578,20.8,20.8,0,0,0,1.777,4.642c.242.485.494.974.739,1.447l-.425.233Z" transform="translate(-432.304 -470.841)" fill="#e6aa37"/>
            </g>
            <g id="グループ_350" data-name="グループ 350" transform="translate(42.482 50.074)">
              <path id="パス_2450" data-name="パス 2450" d="M463,513.739a.483.483,0,0,1-.349-.149c-.125-.13-.25-.271-.372-.417a8.493,8.493,0,0,1-1.859-4.04.484.484,0,0,1,.956-.159,7.524,7.524,0,0,0,1.648,3.579c.107.129.217.252.326.365a.485.485,0,0,1-.349.82Z" transform="translate(-460.414 -508.569)" fill="#e6aa37"/>
            </g>
            <path id="パス_2454" data-name="パス 2454" d="M7.808,68.943c1.937.675,9.717,4.813,7.239,6.727a4.872,4.872,0,0,1-4.766.9" transform="translate(-2.38 -21.016)" fill="none" stroke="#e6aa37" stroke-width="1.2"/>
          </g>
        </g>
      </g>
      <path id="パス_2455" data-name="パス 2455" d="M1189.671,3808.872c-2-1.6-4.026-2.179-4.581-.83S1189.671,3808.872,1189.671,3808.872Z" transform="translate(-0.839 -19.059)" fill="#e6aa37"/>
      <path id="パス_2456" data-name="パス 2456" d="M4.623,1.581C2.627-.014.6-.6.042.751S4.623,1.581,4.623,1.581Z" transform="matrix(0.899, -0.438, 0.438, 0.899, 1177.846, 3797.838)" fill="#e6aa37"/>
      <path id="パス_2457" data-name="パス 2457" d="M4.623,1.581C2.627-.014.6-.6.042.751S4.623,1.581,4.623,1.581Z" transform="matrix(0.799, -0.602, 0.602, 0.799, 1187.217, 3803.421)" fill="#e6aa37"/>
      <path id="パス_2458" data-name="パス 2458" d="M4.623,1.581C2.627-.014.6-.6.042.751S4.623,1.581,4.623,1.581Z" transform="translate(1193.463 3795.915) rotate(-18)" fill="#e6aa37"/>
    </g>
  </g>
</svg>
