<svg xmlns="http://www.w3.org/2000/svg" width="46.693" height="46.69" viewBox="0 0 46.693 46.69">
  <g id="グループ_566" data-name="グループ 566" transform="translate(-140.861 -139.563)">
    <path id="パス_58863" data-name="パス 58863" d="M187.551,164.117v-2.486a.751.751,0,0,0-1.127-.65l-2.038,1.176h-3.71l-1.768-1.021a14.688,14.688,0,0,0-1.084-4.044l1.021-1.769,3.213-1.855h2.353a.751.751,0,0,0,.65-1.127l-1.277-2.212a.751.751,0,0,0-1.3,0l-1.176,2.038-3.213,1.855h-2.049a14.934,14.934,0,0,0-2.954-2.954v-2.049l1.855-3.213,2.038-1.176a.751.751,0,0,0,0-1.3l-2.212-1.277a.751.751,0,0,0-1.127.65v2.353l-1.855,3.213-1.769,1.021a14.685,14.685,0,0,0-4.044-1.084l-1.021-1.768v-3.71l1.176-2.037a.751.751,0,0,0-.65-1.127h-2.554a.751.751,0,0,0-.65,1.127l1.176,2.037v3.71l-1.021,1.768a14.688,14.688,0,0,0-4.044,1.084l-1.769-1.021-1.855-3.213V142.7a.751.751,0,0,0-1.127-.65l-2.212,1.277a.751.751,0,0,0,0,1.3l2.037,1.176,1.855,3.213v2.049a14.934,14.934,0,0,0-2.953,2.953h-2.049l-3.213-1.855-1.176-2.037a.751.751,0,0,0-1.3,0l-1.277,2.212a.751.751,0,0,0,.65,1.127h2.353l3.212,1.855,1.021,1.769a14.689,14.689,0,0,0-1.084,4.044l-1.768,1.021h-3.71l-2.037-1.176a.751.751,0,0,0-1.127.65v2.554a.751.751,0,0,0,1.127.651l2.037-1.176h3.71l1.768,1.021a14.682,14.682,0,0,0,1.084,4.044l-1.022,1.769-3.213,1.855H144a.751.751,0,0,0-.65,1.127l1.277,2.212a.751.751,0,0,0,1.3,0l1.176-2.037,3.213-1.855h2.05a14.938,14.938,0,0,0,2.953,2.954V176.8l-1.855,3.213-2.037,1.176a.751.751,0,0,0,0,1.3l2.212,1.277a.752.752,0,0,0,.376.1h0a.751.751,0,0,0,.751-.751c0-.023,0-.045,0-.068v-2.285l1.855-3.213,1.769-1.021a14.691,14.691,0,0,0,4.044,1.084l1.021,1.768v3.71l-1.176,2.037a.751.751,0,0,0,.65,1.127h2.554a.751.751,0,0,0,.65-1.127l-1.176-2.037v-3.71l1.021-1.768a14.69,14.69,0,0,0,4.044-1.084l1.769,1.021,1.855,3.213v2.353a.751.751,0,0,0,1.127.651l2.212-1.277a.751.751,0,0,0,0-1.3l-2.038-1.176-1.855-3.213v-2.049a14.933,14.933,0,0,0,2.954-2.954h2.049l3.213,1.855,1.176,2.037a.751.751,0,0,0,1.3,0l1.277-2.212a.751.751,0,0,0-.65-1.127h-2.353l-3.213-1.855-1.021-1.769a14.7,14.7,0,0,0,1.084-4.044l1.768-1.021h3.71l2.038,1.176a.751.751,0,0,0,.376.1h0a.751.751,0,0,0,.751-.751C187.554,164.162,187.553,164.139,187.551,164.117Zm-23.342,12.1H164.2a13.307,13.307,0,1,1,13.31-13.313v.012A13.322,13.322,0,0,1,164.209,176.215Z" transform="translate(0 0)" fill="#a0a0a0"/>
    <circle id="楕円形_524" data-name="楕円形 524" cx="1.567" cy="1.567" r="1.567" transform="translate(157.092 155.435)" fill="#a0a0a0"/>
    <circle id="楕円形_525" data-name="楕円形 525" cx="1.567" cy="1.567" r="1.567" transform="translate(170.75 162.09)" fill="#a0a0a0"/>
    <circle id="楕円形_526" data-name="楕円形 526" cx="1.567" cy="1.567" r="1.567" transform="translate(162.489 159.319)" fill="#a0a0a0"/>
    <circle id="楕円形_527" data-name="楕円形 527" cx="1.567" cy="1.567" r="1.567" transform="translate(168.397 168.35)" fill="#a0a0a0"/>
    <circle id="楕円形_528" data-name="楕円形 528" cx="1.567" cy="1.567" r="1.567" transform="translate(163.163 153.23)" fill="#a0a0a0"/>
    <circle id="楕円形_529" data-name="楕円形 529" cx="1.567" cy="1.567" r="1.567" transform="translate(169.146 156.184)" fill="#a0a0a0"/>
    <circle id="楕円形_530" data-name="楕円形 530" cx="1.567" cy="1.567" r="1.567" transform="translate(163.762 165.265)" fill="#a0a0a0"/>
    <circle id="楕円形_531" data-name="楕円形 531" cx="1.567" cy="1.567" r="1.567" transform="translate(159.838 169.099)" fill="#a0a0a0"/>
    <circle id="楕円形_532" data-name="楕円形 532" cx="1.567" cy="1.567" r="1.567" transform="translate(154.732 163.019)" fill="#a0a0a0"/>
  </g>
</svg>
