<svg xmlns="http://www.w3.org/2000/svg" xmlns:xlink="http://www.w3.org/1999/xlink" width="35" height="20" viewBox="0 0 35 20">
  <defs>
    <clipPath id="clip-path">
      <rect id="長方形_1592" data-name="長方形 1592" width="35" height="20" transform="translate(737 3806)" fill="#fff" stroke="#707070" stroke-width="1"/>
    </clipPath>
  </defs>
  <g id="マスクグループ_50" data-name="マスクグループ 50" transform="translate(-737 -3806)" clip-path="url(#clip-path)">
    <path id="パス_2420" data-name="パス 2420" d="M401.074,375.574c-1.052-.436-2.1-.882-3.156-1.3a3.23,3.23,0,0,1-1.016-.643,1.223,1.223,0,0,1-.4-.72c-.076-.471.071-.65.536-.582a5.054,5.054,0,0,1,.9.23c1.413.48,2.83.948,4.218,1.5a14.806,14.806,0,0,0,3.9.914,2.7,2.7,0,0,1,2.1,1.749.842.842,0,0,1-.7,1.245A19.489,19.489,0,0,0,403.211,379c-1.647.566-3.321,1.044-5,1.492a1.363,1.363,0,0,1-1.312-.258c-.525-.438-.508-.936.094-1.257.764-.406,1.561-.748,2.355-1.122-.2-.306-.5-.191-.757-.195-4.355-.075-8.709,0-13.064.112-5.412.137-10.826.135-16.24.105q-7.326-.04-14.648.151c-5.629.147-11.256.419-16.883.631-1.68.063-3.351-.2-5.033-.161a1.924,1.924,0,0,1-1.682-.854c-.287-.426-.15-.721.367-.748a11.941,11.941,0,0,1,1.958.008,41.288,41.288,0,0,0,6.153,0c2.394-.084,4.786-.2,7.179-.288,3.416-.127,6.831-.275,10.248-.357,4.412-.106,8.825-.171,13.239-.159q6.107.017,12.214-.037c2.33-.024,4.659-.14,6.988-.2,3.6-.1,7.21-.122,10.817-.107h.832C401.045,375.695,401.06,375.635,401.074,375.574Z" transform="translate(360.111 3440.687)" fill="#e6aa37" fill-rule="evenodd"/>
  </g>
</svg>
