<svg xmlns="http://www.w3.org/2000/svg" xmlns:xlink="http://www.w3.org/1999/xlink" width="441" height="158" viewBox="0 0 441 158">
  <defs>
    <clipPath id="clip-path">
      <rect id="長方形_1592" data-name="長方形 1592" width="35" height="20" transform="translate(737 3806)" fill="#fff" stroke="#707070" stroke-width="1"/>
    </clipPath>
  </defs>
  <g id="グループ_678" data-name="グループ 678" transform="translate(-484 -3772)">
    <g id="マスクグループ_50" data-name="マスクグループ 50" transform="translate(-77 38)" clip-path="url(#clip-path)">
      <path id="パス_2420" data-name="パス 2420" d="M401.074,375.574c-1.052-.436-2.1-.882-3.156-1.3a3.23,3.23,0,0,1-1.016-.643,1.223,1.223,0,0,1-.4-.72c-.076-.471.071-.65.536-.582a5.054,5.054,0,0,1,.9.23c1.413.48,2.83.948,4.218,1.5a14.806,14.806,0,0,0,3.9.914,2.7,2.7,0,0,1,2.1,1.749.842.842,0,0,1-.7,1.245A19.489,19.489,0,0,0,403.211,379c-1.647.566-3.321,1.044-5,1.492a1.363,1.363,0,0,1-1.312-.258c-.525-.438-.508-.936.094-1.257.764-.406,1.561-.748,2.355-1.122-.2-.306-.5-.191-.757-.195-4.355-.075-8.709,0-13.064.112-5.412.137-10.826.135-16.24.105q-7.326-.04-14.648.151c-5.629.147-11.256.419-16.883.631-1.68.063-3.351-.2-5.033-.161a1.924,1.924,0,0,1-1.682-.854c-.287-.426-.15-.721.367-.748a11.941,11.941,0,0,1,1.958.008,41.288,41.288,0,0,0,6.153,0c2.394-.084,4.786-.2,7.179-.288,3.416-.127,6.831-.275,10.248-.357,4.412-.106,8.825-.171,13.239-.159q6.107.017,12.214-.037c2.33-.024,4.659-.14,6.988-.2,3.6-.1,7.21-.122,10.817-.107h.832C401.045,375.695,401.06,375.635,401.074,375.574Z" transform="translate(360.111 3440.687)" fill="#e6aa37" fill-rule="evenodd"/>
    </g>
    <g id="マスクグループ_51" data-name="マスクグループ 51" transform="translate(153 38)" clip-path="url(#clip-path)">
      <path id="パス_2421" data-name="パス 2421" d="M401.074,375.574c-1.052-.436-2.1-.882-3.156-1.3a3.23,3.23,0,0,1-1.016-.643,1.223,1.223,0,0,1-.4-.72c-.076-.471.071-.65.536-.582a5.054,5.054,0,0,1,.9.23c1.413.48,2.83.948,4.218,1.5a14.806,14.806,0,0,0,3.9.914,2.7,2.7,0,0,1,2.1,1.749.842.842,0,0,1-.7,1.245A19.489,19.489,0,0,0,403.211,379c-1.647.566-3.321,1.044-5,1.492a1.363,1.363,0,0,1-1.312-.258c-.525-.438-.508-.936.094-1.257.764-.406,1.561-.748,2.355-1.122-.2-.306-.5-.191-.757-.195-4.355-.075-8.709,0-13.064.112-5.412.137-10.826.135-16.24.105q-7.326-.04-14.648.151c-5.629.147-11.256.419-16.883.631-1.68.063-3.351-.2-5.033-.161a1.924,1.924,0,0,1-1.682-.854c-.287-.426-.15-.721.367-.748a11.941,11.941,0,0,1,1.958.008,41.288,41.288,0,0,0,6.153,0c2.394-.084,4.786-.2,7.179-.288,3.416-.127,6.831-.275,10.248-.357,4.412-.106,8.825-.171,13.239-.159q6.107.017,12.214-.037c2.33-.024,4.659-.14,6.988-.2,3.6-.1,7.21-.122,10.817-.107h.832C401.045,375.695,401.06,375.635,401.074,375.574Z" transform="translate(360.111 3440.687)" fill="#e6aa37" fill-rule="evenodd"/>
    </g>
    <g id="グループ_353" data-name="グループ 353" transform="translate(333.827 3600.646)">
      <g id="グループ_352" data-name="グループ 352" transform="translate(197.361 198.504)">
        <g id="グループ_326" data-name="グループ 326" transform="translate(0.697 0.699)">
          <g id="グループ_323" data-name="グループ 323" transform="translate(27.48 88.918)">
            <path id="パス_2424" data-name="パス 2424" d="M322.38,619.8a8.159,8.159,0,0,0-1.134-8.419,27.887,27.887,0,0,1-2.07-2.623,3.02,3.02,0,0,1-.13-3.162,4.038,4.038,0,0,1,.325-.39l.016.009a12.041,12.041,0,0,1,2.679-2.941q.512-.446,1.02-.892c.632-.416,1.266-.822,1.9-1.227a160.321,160.321,0,0,1,32.084-15.616,2.637,2.637,0,0,1,1.584-.211c.792.23,1.175,1.1,1.457,1.877l2.188,6.008,1.412,3.32q6.2,10.621,12.389,21.238" transform="translate(-318.653 -584.268)" fill="#fff"/>
          </g>
          <g id="グループ_324" data-name="グループ 324">
            <path id="パス_2425" data-name="パス 2425" d="M211.617,233.886a9.628,9.628,0,0,0,5.2,8.51,14.686,14.686,0,0,1-10.033-4.486c-.149-.156-.3-.323-.434-.495a10.833,10.833,0,0,0,1.956,4.34l-.207.121a4.679,4.679,0,0,1-1.958.077,4.976,4.976,0,0,1-3.248-2.028l-.044.033a13.9,13.9,0,0,1,.058-15.962l-.411-.269a9.356,9.356,0,0,1,1.8-5.12l0,0a28.79,28.79,0,0,1,21.946-12,9.366,9.366,0,0,1,6.679-3.329,32.436,32.436,0,0,1,18.113-.839c6.776,1.782,12.919,6.44,15.751,12.837l.118-.053a8.043,8.043,0,0,1,5.378.609,10.259,10.259,0,0,1,1.812.441c8.742,2.906,13.007,10.291,13.5,19.049h.009a17.441,17.441,0,0,1-.971,4.537l-.056,0a27.007,27.007,0,0,1-3.64,15.906l.037.023a18.7,18.7,0,0,1-3.315,4.837,21.665,21.665,0,0,1-1.389,4.414,29.019,29.019,0,0,1-2.356,3.88c-3.025,4.491-5.843,9.362-6.4,14.749l-.367.03c-.033-.023-.065-.044-.1-.067-.128-.091-.256-.184-.381-.279a21.178,21.178,0,0,1-4.124-4.093c-.188-.074-.372-.153-.555-.237a14.355,14.355,0,0,1-6-5.083l-.084.042a30.392,30.392,0,0,1-2.611-6.832,11.779,11.779,0,0,1-1.055-3.113,5.584,5.584,0,0,0-1.777-3.222,14.182,14.182,0,0,0-.06-2.827,5.771,5.771,0,0,0-1.652-3.784,4.311,4.311,0,0,0-1.947-.9,5.426,5.426,0,0,0-1.733-.067,8.048,8.048,0,0,0-6.946-1.84l-.058-.1a7.588,7.588,0,0,0-1.412.964,9.237,9.237,0,0,0-4.084,3.217l-.135-.009a9.706,9.706,0,0,1-.167,1.319c-.434-2.328-2.144-4.274-3.854-6.017a12.119,12.119,0,0,0-3.4-5.975c-.318-.3-.653-.588-1-.864l-.177.221a14.875,14.875,0,0,0-3.152-1.721,39.691,39.691,0,0,1-4.114-2.17A20.332,20.332,0,0,1,211.617,233.886Z" transform="translate(-200.361 -201.512)" fill="#e6aa37"/>
          </g>
          <g id="グループ_325" data-name="グループ 325" transform="translate(0.049 32.374)">
            <path id="パス_2426" data-name="パス 2426" d="M216.982,349.38a9.628,9.628,0,0,1-5.2-8.51,20.331,20.331,0,0,0,6.958,6.368,39.687,39.687,0,0,0,4.114,2.17A14.876,14.876,0,0,1,226,351.129l.177-.221c.344.276.678.562,1,.864a12.119,12.119,0,0,1,3.4,5.975c1.71,1.742,3.42,3.689,3.854,6.017a9.707,9.707,0,0,0,.167-1.32l.135.009a9.238,9.238,0,0,1,4.084-3.217,7.592,7.592,0,0,1,1.412-.964l.058.1a8.048,8.048,0,0,1,6.946,1.84,5.427,5.427,0,0,1,1.733.067,4.311,4.311,0,0,1,1.947.9,5.771,5.771,0,0,1,1.652,3.784,14.182,14.182,0,0,1,.06,2.827,5.584,5.584,0,0,1,1.777,3.222,11.779,11.779,0,0,0,1.055,3.113,30.391,30.391,0,0,0,2.611,6.832l.084-.042a14.354,14.354,0,0,0,6,5.083c.184.084.367.163.555.237a21.18,21.18,0,0,0,4.124,4.093,11.9,11.9,0,0,0-.632,3.115l-.2-.012a13.793,13.793,0,0,0,.358,4.024l-.349.007a2.638,2.638,0,0,0-1.584.211A160.314,160.314,0,0,0,234.34,413.3l-.288-.46c-1.15-2.488-1.682-5.22-2.737-7.75s-2.813-4.985-5.415-5.85c-2.084-.695-4.347-.265-6.528,0s-4.579.3-6.342-1.006a6.536,6.536,0,0,1-2.318-3.945,15.4,15.4,0,0,1-.263-3.445l-.186,0c-.537-2.051-.911-4.033-1.315-5.945-.86-4.086-1.847-7.852-4.8-11.29l-.509.016a7.221,7.221,0,0,1-2.316-2,3.157,3.157,0,0,1-.75-1.914c.035-1.385,1.392-2.288,2.444-3.187a10.454,10.454,0,0,0,3.615-7.578l.07-.007a17,17,0,0,1-.33-2.541,73.786,73.786,0,0,1-.065-7.462,4.679,4.679,0,0,0,1.958-.077l.207-.121a10.833,10.833,0,0,1-1.956-4.34c.139.172.286.339.434.495A14.686,14.686,0,0,0,216.982,349.38Zm-3.791,12.67a2.14,2.14,0,0,0-.395-1.786c-.441-.351-.655-.037-.75.441a3.976,3.976,0,0,0,0,1.7.69.69,0,0,0,.2.372C212.663,363.109,213.135,362.38,213.191,362.05Z" transform="translate(-200.571 -340.87)" fill="#fff"/>
          </g>
        </g>
        <g id="グループ_351" data-name="グループ 351" transform="translate(0)">
          <g id="グループ_327" data-name="グループ 327" transform="translate(0.049 50.452)">
            <path id="パス_2427" data-name="パス 2427" d="M201.335,431.749a.693.693,0,0,1-.332-.085,7.949,7.949,0,0,1-2.54-2.189,3.751,3.751,0,0,1-.89-2.352c.038-1.514,1.217-2.484,2.257-3.34.146-.12.291-.239.43-.358a9.762,9.762,0,0,0,3.371-7.066.7.7,0,0,1,.7-.679h.018a.7.7,0,0,1,.679.715,11.177,11.177,0,0,1-3.859,8.09c-.146.124-.3.249-.45.375-.888.731-1.728,1.421-1.75,2.3a2.45,2.45,0,0,0,.611,1.478,6.544,6.544,0,0,0,2.091,1.8.7.7,0,0,1-.333,1.31Z" transform="translate(-197.572 -415.68)" fill="#e6aa37"/>
          </g>
          <g id="グループ_329" data-name="グループ 329" transform="translate(7.091 75.92)">
            <path id="パス_2429" data-name="パス 2429" d="M230.566,527.213c-.238,0-.476-.011-.713-.033a7.518,7.518,0,0,1-1.469-.276.7.7,0,1,1,.393-1.337,6.131,6.131,0,0,0,1.2.225,6.416,6.416,0,0,0,2.977-.433.7.7,0,0,1,.522,1.293A7.792,7.792,0,0,1,230.566,527.213Z" transform="translate(-227.883 -525.309)" fill="#e6aa37"/>
          </g>
          <g id="グループ_330" data-name="グループ 330" transform="translate(9.924 81.135)">
            <path id="パス_2430" data-name="パス 2430" d="M264.382,572.361a.7.7,0,0,1-.633-.4,34.626,34.626,0,0,1-1.54-4.277c-.362-1.165-.737-2.369-1.207-3.5-.686-1.646-2.248-4.545-4.992-5.456a12.348,12.348,0,0,0-5.411-.073c-.272.035-.543.071-.814.1-2.121.258-4.816.362-6.841-1.138a7.213,7.213,0,0,1-2.585-4.359,16.108,16.108,0,0,1-.278-3.6c.007-.411.019-.818.03-1.223a.7.7,0,0,1,1.393.04c-.012.4-.023.8-.03,1.2a14.807,14.807,0,0,0,.247,3.287,5.834,5.834,0,0,0,2.052,3.53c1.629,1.206,3.979,1.1,5.843.874.266-.032.534-.067.8-.1a13.368,13.368,0,0,1,6.031.133c3.1,1.031,4.888,3.964,5.838,6.243.5,1.188.88,2.424,1.252,3.62a33.576,33.576,0,0,0,1.474,4.106.7.7,0,0,1-.632.989Z" transform="translate(-240.079 -547.759)" fill="#e6aa37"/>
          </g>
          <g id="グループ_331" data-name="グループ 331" transform="translate(40.662 51.683)">
            <path id="パス_2431" data-name="パス 2431" d="M375.386,441.175a3.87,3.87,0,0,1-2.781-1.044.7.7,0,0,1,.972-1c1.023,1,2.891.719,4.289,0,3.358-1.72,5.647-5.512,5.974-9.895a13.5,13.5,0,0,0-.057-2.691,5.021,5.021,0,0,0-1.413-3.339,3.624,3.624,0,0,0-1.633-.748,4.714,4.714,0,0,0-1.51-.059,4.991,4.991,0,0,0-2.787,1.251.7.7,0,0,1-.941-1.029,6.4,6.4,0,0,1,3.564-1.607,6.093,6.093,0,0,1,1.952.077,5.016,5.016,0,0,1,2.26,1.054,6.3,6.3,0,0,1,1.891,4.23,14.893,14.893,0,0,1,.064,2.967c-.362,4.862-2.94,9.089-6.729,11.029A7.074,7.074,0,0,1,375.386,441.175Z" transform="translate(-372.394 -420.976)" fill="#e6aa37"/>
          </g>
          <g id="グループ_332" data-name="グループ 332" transform="translate(42.179 59.942)">
            <path id="パス_2432" data-name="パス 2432" d="M379.622,459.741a.7.7,0,0,1-.407-1.264,11.377,11.377,0,0,1,4.595-1.936.7.7,0,1,1,.246,1.372,9.97,9.97,0,0,0-4.028,1.7A.693.693,0,0,1,379.622,459.741Z" transform="translate(-378.924 -456.53)" fill="#e6aa37"/>
          </g>
          <g id="グループ_334" data-name="グループ 334" transform="translate(0 22.024)">
            <path id="パス_2434" data-name="パス 2434" d="M201.632,312.494a.7.7,0,0,1-.518-.23,14.351,14.351,0,0,1-1.138-1.438,14.593,14.593,0,0,1,.061-16.761c.114-.162.234-.324.356-.483a.7.7,0,0,1,1.1.85c-.11.143-.218.288-.321.435a13.2,13.2,0,0,0-.056,15.165,12.958,12.958,0,0,0,1.027,1.3.7.7,0,0,1-.517,1.164Z" transform="translate(-197.361 -293.309)" fill="#e6aa37"/>
          </g>
          <g id="グループ_335" data-name="グループ 335" transform="translate(5.762 30.989)">
            <path id="パス_2435" data-name="パス 2435" d="M225.694,343.319a.7.7,0,0,1-.512-.224c-.244-.264-.476-.542-.69-.824a11.561,11.561,0,0,1-2.083-4.618,11.345,11.345,0,0,1,.131-5.239.7.7,0,1,1,1.346.363,9.944,9.944,0,0,0-.112,4.592,10.159,10.159,0,0,0,1.829,4.06c.187.247.389.489.6.72a.7.7,0,0,1-.512,1.17Z" transform="translate(-222.165 -331.899)" fill="#e6aa37"/>
          </g>
          <g id="グループ_336" data-name="グループ 336" transform="translate(11.256 32.109)">
            <path id="パス_2436" data-name="パス 2436" d="M251.984,347.023a.692.692,0,0,1-.291-.064q-.149-.069-.3-.145a10.3,10.3,0,0,1-5.582-9.137c0-.1,0-.2.006-.3a.7.7,0,0,1,1.392.075c0,.076,0,.152,0,.23a8.88,8.88,0,0,0,4.819,7.886c.089.045.17.085.252.123a.7.7,0,0,1-.292,1.33Z" transform="translate(-245.812 -336.72)" fill="#e6aa37"/>
          </g>
          <g id="グループ_337" data-name="グループ 337" transform="translate(19.647 34.606)">
            <path id="パス_2437" data-name="パス 2437" d="M293.359,366.187a.7.7,0,0,1-.7-.7,11.1,11.1,0,0,0-.3-2.518,11.474,11.474,0,0,0-3.206-5.63c-.278-.264-.59-.534-.953-.826-.3-.244-.606-.48-.912-.716a23.261,23.261,0,0,1-2.094-1.755,12.072,12.072,0,0,1-3.245-5.717.7.7,0,0,1,1.355-.327,10.662,10.662,0,0,0,2.865,5.048,21.879,21.879,0,0,0,1.971,1.648c.314.243.628.485.935.734.391.314.731.609,1.037.9a12.883,12.883,0,0,1,3.6,6.321,12.482,12.482,0,0,1,.337,2.834.7.7,0,0,1-.7.7Z" transform="translate(-281.934 -347.47)" fill="#e6aa37"/>
          </g>
          <g id="グループ_338" data-name="グループ 338" transform="translate(32.993 48.656)">
            <path id="パス_2438" data-name="パス 2438" d="M340.915,416.355a.7.7,0,0,1-.68-.852c.028-.121.056-.242.077-.363a9.157,9.157,0,0,0,.158-1.239,9.679,9.679,0,0,0-1.011-4.94.7.7,0,0,1,1.244-.628,11.072,11.072,0,0,1,1.158,5.65,10.457,10.457,0,0,1-.179,1.412c-.023.13-.056.274-.088.417A.7.7,0,0,1,340.915,416.355Z" transform="translate(-339.383 -407.949)" fill="#e6aa37"/>
          </g>
          <g id="グループ_339" data-name="グループ 339" transform="translate(38.297 48.824)">
            <path id="パス_2439" data-name="パス 2439" d="M362.911,411.985a.7.7,0,0,1-.457-1.224A8.31,8.31,0,0,1,364,409.708a8.781,8.781,0,0,1,6.016-.828.7.7,0,0,1-.311,1.359,7.373,7.373,0,0,0-5.05.7,6.914,6.914,0,0,0-1.285.876A.693.693,0,0,1,362.911,411.985Z" transform="translate(-362.214 -408.672)" fill="#e6aa37"/>
          </g>
          <g id="グループ_340" data-name="グループ 340" transform="translate(3.931 5.066)">
            <path id="パス_2440" data-name="パス 2440" d="M214.98,233.731a.7.7,0,0,1-.57-1.1,29.61,29.61,0,0,1,22.486-12.3c.336-.016.643-.024.939-.026h.005a.7.7,0,0,1,.005,1.394c-.277,0-.567.01-.886.025a28.188,28.188,0,0,0-21.408,11.705A.7.7,0,0,1,214.98,233.731Z" transform="translate(-214.284 -220.31)" fill="#e6aa37"/>
          </g>
          <g id="グループ_341" data-name="グループ 341" transform="translate(29.683)">
            <path id="パス_2441" data-name="パス 2441" d="M362.738,214.05a.7.7,0,0,1-.645-.432c-.051-.124-.106-.247-.161-.371A22.966,22.966,0,0,0,346.64,200.8a31.633,31.633,0,0,0-17.722.828c-.942.3-1.891.652-2.822,1.036a.7.7,0,0,1-.531-1.289c.965-.4,1.949-.759,2.926-1.074a33.018,33.018,0,0,1,18.5-.849,24.369,24.369,0,0,1,16.211,13.23c.06.134.121.271.177.407a.7.7,0,0,1-.644.962Z" transform="translate(-325.133 -198.505)" fill="#e6aa37"/>
          </g>
          <g id="グループ_342" data-name="グループ 342" transform="translate(69.194 14.242)">
            <path id="パス_2442" data-name="パス 2442" d="M513.946,280.769a.7.7,0,0,1-.7-.658c-.523-9.265-5.149-15.809-13.026-18.427a9.479,9.479,0,0,0-1.689-.413,4.863,4.863,0,0,0-2.387.18.7.7,0,1,1-.479-1.309,6.222,6.222,0,0,1,3.063-.251,10.811,10.811,0,0,1,1.931.47,19.271,19.271,0,0,1,10.2,7.6,23.7,23.7,0,0,1,3.776,12.069.7.7,0,0,1-.656.735Z" transform="translate(-495.213 -259.81)" fill="#e6aa37"/>
          </g>
          <g id="グループ_343" data-name="グループ 343" transform="translate(81.525 37.168)">
            <path id="パス_2443" data-name="パス 2443" d="M548.99,378.608a.7.7,0,0,1-.571-1.1c.35-.5.693-1.036,1.02-1.586a26.308,26.308,0,0,0,3.545-15.491c-.029-.353-.07-.728-.124-1.149a.7.7,0,1,1,1.382-.18c.058.444.1.84.131,1.213a27.712,27.712,0,0,1-3.735,16.318c-.345.581-.707,1.143-1.076,1.673A.7.7,0,0,1,548.99,378.608Z" transform="translate(-548.294 -358.499)" fill="#e6aa37"/>
          </g>
          <g id="グループ_344" data-name="グループ 344" transform="translate(69.155 58.018)">
            <path id="パス_2444" data-name="パス 2444" d="M495.742,473.783c-.024,0-.048,0-.072,0a.7.7,0,0,1-.622-.765c.575-5.6,3.469-10.552,6.511-15.068l.224-.332a25.865,25.865,0,0,0,2.078-3.452,21.1,21.1,0,0,0,1.341-4.273c.076-.332.148-.663.219-.993l.021-.1a.7.7,0,1,1,1.362.295l-.021.1c-.072.335-.145.672-.222,1.007a22.329,22.329,0,0,1-1.437,4.552,26.861,26.861,0,0,1-2.186,3.644l-.223.33c-2.941,4.366-5.737,9.136-6.281,14.432A.7.7,0,0,1,495.742,473.783Z" transform="translate(-495.044 -448.249)" fill="#e6aa37"/>
          </g>
          <g id="グループ_345" data-name="グループ 345" transform="translate(30.696 88.921)">
            <path id="パス_2445" data-name="パス 2445" d="M383.845,614.849l-.019-.032-12.39-21.238a.793.793,0,0,1-.039-.078l-1.412-3.32c0-.011-.009-.023-.013-.034l-2.188-6.008c-.244-.672-.534-1.312-1-1.446a2.11,2.11,0,0,0-1.157.2,159.7,159.7,0,0,0-31.945,15.548c-.709.449-1.329.848-1.895,1.22q-.611.4-1.213.8a.7.7,0,0,1-.774-1.16q.61-.406,1.224-.806c.57-.375,1.2-.778,1.913-1.232a161.094,161.094,0,0,1,32.224-15.684,3.287,3.287,0,0,1,2.012-.224c1.206.35,1.686,1.673,1.918,2.308l2.182,5.99,1.388,3.262,12.385,21.231" transform="translate(-329.494 -581.271)" fill="#e6aa37"/>
          </g>
          <g id="グループ_346" data-name="グループ 346" transform="translate(27.476 109.854)">
            <path id="パス_2446" data-name="パス 2446" d="M319.425,686.391a7.444,7.444,0,0,0-1.053-7.72c-.24-.321-.505-.625-.785-.946a11.222,11.222,0,0,1-1.331-1.748,3.688,3.688,0,0,1-.1-3.911,4.644,4.644,0,0,1,.38-.458.7.7,0,0,1,1.032.937,3.493,3.493,0,0,0-.27.322,2.373,2.373,0,0,0,.163,2.414,10.037,10.037,0,0,0,1.174,1.527c.285.326.579.663.85,1.025a8.9,8.9,0,0,1,1.214,9.117" transform="translate(-315.636 -671.38)" fill="#e6aa37"/>
          </g>
          <g id="グループ_347" data-name="グループ 347" transform="translate(38.497 107.405)">
            <path id="パス_2447" data-name="パス 2447" d="M363.772,671.769a.7.7,0,0,1-.4-1.265,83.191,83.191,0,0,1,17.786-9.617.7.7,0,1,1,.509,1.3,81.793,81.793,0,0,0-17.488,9.456A.694.694,0,0,1,363.772,671.769Z" transform="translate(-363.074 -660.839)" fill="#e6aa37"/>
          </g>
          <g id="グループ_348" data-name="グループ 348" transform="translate(67.454 84.404)">
            <path id="パス_2448" data-name="パス 2448" d="M488.8,567.789a.7.7,0,0,1-.677-.534,14.462,14.462,0,0,1-.376-4.227c.01-.187.025-.378.044-.572a.7.7,0,0,1,1.387.143c-.018.169-.031.336-.039.5a13.079,13.079,0,0,0,.339,3.826.7.7,0,0,1-.678.86Z" transform="translate(-487.722 -561.83)" fill="#e6aa37"/>
          </g>
          <g id="グループ_349" data-name="グループ 349" transform="translate(54.58 63.267)">
            <path id="パス_2449" data-name="パス 2449" d="M436.427,483.169c-.361-.7-.728-1.408-1.08-2.116a31.2,31.2,0,0,1-2.668-6.992,16.981,16.981,0,0,1-.372-2.471.7.7,0,1,1,1.39-.1,15.561,15.561,0,0,0,.343,2.27,29.917,29.917,0,0,0,2.556,6.677c.348.7.711,1.4,1.063,2.082l-.612.335Z" transform="translate(-432.304 -470.841)" fill="#e6aa37"/>
          </g>
          <g id="グループ_350" data-name="グループ 350" transform="translate(61.11 72.031)">
            <path id="パス_2450" data-name="パス 2450" d="M464.135,516.006a.7.7,0,0,1-.5-.214c-.18-.187-.36-.389-.535-.6a12.217,12.217,0,0,1-2.674-5.811.7.7,0,1,1,1.375-.229,10.823,10.823,0,0,0,2.371,5.148c.154.186.312.362.469.526a.7.7,0,0,1-.5,1.18Z" transform="translate(-460.414 -508.569)" fill="#e6aa37"/>
          </g>
        </g>
      </g>
    </g>
    <g id="グループ_354" data-name="グループ 354" transform="translate(17 121)">
      <circle id="楕円形_35" data-name="楕円形 35" cx="2.5" cy="2.5" r="2.5" transform="translate(490 3717)" fill="#e6aa37"/>
      <circle id="楕円形_38" data-name="楕円形 38" cx="2.5" cy="2.5" r="2.5" transform="translate(473 3762)" fill="#e6aa37"/>
      <circle id="楕円形_37" data-name="楕円形 37" cx="1.5" cy="1.5" r="1.5" transform="translate(490 3745)" fill="#e6aa37"/>
      <circle id="楕円形_36" data-name="楕円形 36" cx="3.5" cy="3.5" r="3.5" transform="translate(473 3728)" fill="#e6aa37"/>
      <circle id="楕円形_39" data-name="楕円形 39" cx="3.5" cy="3.5" r="3.5" transform="translate(486 3777)" fill="#e6aa37"/>
    </g>
    <line id="線_414" data-name="線 414" y2="27" transform="translate(510 3797.15)" fill="none" stroke="#eae4d9" stroke-width="1"/>
    <line id="線_415" data-name="線 415" y2="17.349" transform="translate(831 3793.15)" fill="none" stroke="#eae4d9" stroke-width="1"/>
    <text id="花粉_ハウスダスト_抗原_" data-name="花粉・ハウスダスト(抗原)" transform="translate(484 3772)" fill="#e6aa37" font-size="10" font-family="HiraginoSans-W6, Hiragino Sans" letter-spacing="-0.05em"><tspan x="0" y="11">花粉・ハウスダスト</tspan><tspan y="11" font-family="NotoSans-Bold, Noto Sans" font-weight="700">(</tspan><tspan y="11">抗原</tspan><tspan y="11" font-family="NotoSans-Bold, Noto Sans" font-weight="700">)</tspan></text>
    <text id="抗体" transform="translate(822 3781)" fill="#e6aa37" font-size="10" font-family="HiraginoSans-W6, Hiragino Sans" letter-spacing="-0.05em"><tspan x="0" y="0">抗体</tspan></text>
    <text id="マスト細胞" transform="translate(760 3929)" fill="#e6aa37" font-size="10" font-family="HiraginoSans-W6, Hiragino Sans" letter-spacing="-0.05em"><tspan x="0" y="0">マスト細胞</tspan></text>
    <path id="パス_2451" data-name="パス 2451" d="M2862.318,339.567a3.787,3.787,0,0,0-1.491.3.178.178,0,0,0-.025.012,3.809,3.809,0,0,0-.813.483,14.808,14.808,0,0,1-11.6,1.523,30.916,30.916,0,0,0-2.29-10.338,11.452,11.452,0,0,1,8.6-2.286,2.926,2.926,0,1,0-1.31-4.862.176.176,0,0,0-.015.016,2.909,2.909,0,0,0-.435.585,11.432,11.432,0,0,1-7.764,4.521,31.111,31.111,0,0,0-4.837-7.061,14.806,14.806,0,0,1,9.261-7.122,3.8,3.8,0,1,0-3.973-5.186.177.177,0,0,0-.01.026,3.792,3.792,0,0,0-.232.916,14.809,14.809,0,0,1-7.129,9.282,31.083,31.083,0,0,0-8.929-5.69,11.452,11.452,0,0,1,4.467-7.7,2.927,2.927,0,1,0-4.365-2.512.121.121,0,0,0,0,.022,2.931,2.931,0,0,0,.106.721,11.43,11.43,0,0,1-2.292,8.685,30.957,30.957,0,0,0-8.413-1.571,14.8,14.8,0,0,1,1.512-11.585,3.8,3.8,0,1,0-6.476-.857.149.149,0,0,0,.011.026,3.794,3.794,0,0,0,.483.812,14.809,14.809,0,0,1,1.523,11.6,30.911,30.911,0,0,0-10.338,2.29,11.454,11.454,0,0,1-2.286-8.6,2.926,2.926,0,1,0-4.862,1.31.124.124,0,0,0,.016.015,2.919,2.919,0,0,0,.585.435,11.432,11.432,0,0,1,4.521,7.764,31.118,31.118,0,0,0-7.061,4.837,14.8,14.8,0,0,1-7.123-9.261,3.8,3.8,0,1,0-5.186,3.973.188.188,0,0,0,.027.01,3.8,3.8,0,0,0,.917.233,14.808,14.808,0,0,1,9.282,7.128,31.083,31.083,0,0,0-5.69,8.93,11.455,11.455,0,0,1-7.7-4.467,2.926,2.926,0,1,0-2.511,4.364.134.134,0,0,0,.022,0,2.923,2.923,0,0,0,.721-.106,11.431,11.431,0,0,1,8.685,2.292,30.949,30.949,0,0,0-1.571,8.414,14.8,14.8,0,0,1-11.585-1.512,3.8,3.8,0,1,0-.857,6.476.2.2,0,0,0,.025-.012,3.794,3.794,0,0,0,.813-.483,14.808,14.808,0,0,1,11.6-1.523,30.916,30.916,0,0,0,2.291,10.338,11.453,11.453,0,0,1-8.6,2.286,2.926,2.926,0,1,0,1.31,4.862.159.159,0,0,0,.015-.016,2.948,2.948,0,0,0,.435-.585,11.43,11.43,0,0,1,7.764-4.521,31.11,31.11,0,0,0,4.836,7.061,14.8,14.8,0,0,1-9.261,7.122,3.8,3.8,0,1,0,3.973,5.186.171.171,0,0,0,.01-.026,3.818,3.818,0,0,0,.233-.916,14.806,14.806,0,0,1,7.128-9.282,31.088,31.088,0,0,0,8.929,5.69,11.454,11.454,0,0,1-4.467,7.7,2.926,2.926,0,1,0,4.365,2.511.167.167,0,0,0,0-.022,2.9,2.9,0,0,0-.106-.721,11.432,11.432,0,0,1,2.292-8.685,30.954,30.954,0,0,0,8.414,1.571,14.806,14.806,0,0,1-1.513,11.585,3.8,3.8,0,1,0,6.476.857.215.215,0,0,0-.012-.026,3.751,3.751,0,0,0-.484-.812,14.81,14.81,0,0,1-1.522-11.6,30.92,30.92,0,0,0,10.338-2.29,11.453,11.453,0,0,1,2.286,8.6,2.927,2.927,0,1,0,4.862-1.31.125.125,0,0,0-.016-.015,2.925,2.925,0,0,0-.585-.435,11.43,11.43,0,0,1-4.521-7.764,31.135,31.135,0,0,0,7.061-4.837,14.8,14.8,0,0,1,7.122,9.261,3.8,3.8,0,1,0,5.186-3.973.17.17,0,0,0-.027-.01,3.786,3.786,0,0,0-.916-.233,14.807,14.807,0,0,1-9.282-7.128,31.1,31.1,0,0,0,5.69-8.93,11.454,11.454,0,0,1,7.7,4.467,2.926,2.926,0,1,0,2.511-4.365.139.139,0,0,0-.021,0,2.921,2.921,0,0,0-.721.106,11.431,11.431,0,0,1-8.686-2.292,30.977,30.977,0,0,0,1.572-8.414,14.8,14.8,0,0,1,11.584,1.512,3.8,3.8,0,1,0,2.348-6.78ZM2820.4,323.618a1.823,1.823,0,1,1-1.822,1.823A1.823,1.823,0,0,1,2820.4,323.618Zm-3.038,11.7a1.823,1.823,0,1,1-1.823,1.823A1.823,1.823,0,0,1,2817.357,335.314ZM2797,331.972a3.342,3.342,0,1,1-3.342,3.342A3.341,3.341,0,0,1,2797,331.972Zm.455,24.3a3.342,3.342,0,1,1,3.342-3.342A3.342,3.342,0,0,1,2797.459,356.275Zm4.253-13.519a1.823,1.823,0,1,1,1.822-1.823A1.823,1.823,0,0,1,2801.713,342.757Zm1.822-12.3a1.823,1.823,0,1,1,1.823,1.823A1.823,1.823,0,0,1,2803.535,330.453Zm2.43,27.949a1.823,1.823,0,1,1,1.823-1.823A1.823,1.823,0,0,1,2805.965,358.4Zm1.671-36.3a3.342,3.342,0,1,1,3.342,3.342A3.342,3.342,0,0,1,2807.636,322.1Zm2.431,21.265a1.823,1.823,0,1,1,1.823,1.823A1.822,1.822,0,0,1,2810.067,343.364Zm5.164,23.24a3.342,3.342,0,1,1,3.342-3.342A3.342,3.342,0,0,1,2815.231,366.6Zm2.126-19.9a1.823,1.823,0,1,1,1.823,1.823A1.823,1.823,0,0,1,2817.357,346.706Zm3.8,11.392a1.823,1.823,0,1,1,1.823-1.823A1.823,1.823,0,0,1,2821.155,358.1Zm8.354-35.543a1.823,1.823,0,1,1-1.823,1.823A1.822,1.822,0,0,1,2829.509,322.555Zm1.975,20.81a1.823,1.823,0,1,1-1.823-1.823A1.823,1.823,0,0,1,2831.484,343.364Zm-.3,19.9a3.342,3.342,0,1,1,3.342-3.342A3.342,3.342,0,0,1,2831.18,363.262ZM2833,333.795a3.341,3.341,0,1,1,3.341,3.342A3.341,3.341,0,0,1,2833,333.795Zm6.075,15.189a1.823,1.823,0,1,1,1.823-1.823A1.823,1.823,0,0,1,2839.079,348.984Z" transform="translate(-2024.599 3511.005)" fill="#e6aa37"/>
  </g>
</svg>
