<svg xmlns="http://www.w3.org/2000/svg" width="98" height="158" viewBox="0 0 98 158">
  <g id="グループ_581" data-name="グループ 581" transform="translate(-744 -3772)">
    <line id="線_415" data-name="線 415" y2="17.349" transform="translate(831 3793.15)" fill="none" stroke="#eae4d9" stroke-width="1"/>
    <text id="抗体" transform="translate(822 3781)" fill="#e6aa37" font-size="10" font-family="HiraginoSans-W6, Hiragino Sans" letter-spacing="-0.05em"><tspan x="0" y="0">抗体</tspan></text>
    <text id="マスト細胞" transform="translate(760 3929)" fill="#e6aa37" font-size="10" font-family="HiraginoSans-W6, Hiragino Sans" letter-spacing="-0.05em"><tspan x="0" y="0">マスト細胞</tspan></text>
    <path id="パス_2451" data-name="パス 2451" d="M2862.318,339.567a3.787,3.787,0,0,0-1.491.3.178.178,0,0,0-.025.012,3.809,3.809,0,0,0-.813.483,14.808,14.808,0,0,1-11.6,1.523,30.916,30.916,0,0,0-2.29-10.338,11.452,11.452,0,0,1,8.6-2.286,2.926,2.926,0,1,0-1.31-4.862.176.176,0,0,0-.015.016,2.909,2.909,0,0,0-.435.585,11.432,11.432,0,0,1-7.764,4.521,31.111,31.111,0,0,0-4.837-7.061,14.806,14.806,0,0,1,9.261-7.122,3.8,3.8,0,1,0-3.973-5.186.177.177,0,0,0-.01.026,3.792,3.792,0,0,0-.232.916,14.809,14.809,0,0,1-7.129,9.282,31.083,31.083,0,0,0-8.929-5.69,11.452,11.452,0,0,1,4.467-7.7,2.927,2.927,0,1,0-4.365-2.512.121.121,0,0,0,0,.022,2.931,2.931,0,0,0,.106.721,11.43,11.43,0,0,1-2.292,8.685,30.957,30.957,0,0,0-8.413-1.571,14.8,14.8,0,0,1,1.512-11.585,3.8,3.8,0,1,0-6.476-.857.149.149,0,0,0,.011.026,3.794,3.794,0,0,0,.483.812,14.809,14.809,0,0,1,1.523,11.6,30.911,30.911,0,0,0-10.338,2.29,11.454,11.454,0,0,1-2.286-8.6,2.926,2.926,0,1,0-4.862,1.31.124.124,0,0,0,.016.015,2.919,2.919,0,0,0,.585.435,11.432,11.432,0,0,1,4.521,7.764,31.118,31.118,0,0,0-7.061,4.837,14.8,14.8,0,0,1-7.123-9.261,3.8,3.8,0,1,0-5.186,3.973.188.188,0,0,0,.027.01,3.8,3.8,0,0,0,.917.233,14.808,14.808,0,0,1,9.282,7.128,31.083,31.083,0,0,0-5.69,8.93,11.455,11.455,0,0,1-7.7-4.467,2.926,2.926,0,1,0-2.511,4.364.134.134,0,0,0,.022,0,2.923,2.923,0,0,0,.721-.106,11.431,11.431,0,0,1,8.685,2.292,30.949,30.949,0,0,0-1.571,8.414,14.8,14.8,0,0,1-11.585-1.512,3.8,3.8,0,1,0-.857,6.476.2.2,0,0,0,.025-.012,3.794,3.794,0,0,0,.813-.483,14.808,14.808,0,0,1,11.6-1.523,30.916,30.916,0,0,0,2.291,10.338,11.453,11.453,0,0,1-8.6,2.286,2.926,2.926,0,1,0,1.31,4.862.159.159,0,0,0,.015-.016,2.948,2.948,0,0,0,.435-.585,11.43,11.43,0,0,1,7.764-4.521,31.11,31.11,0,0,0,4.836,7.061,14.8,14.8,0,0,1-9.261,7.122,3.8,3.8,0,1,0,3.973,5.186.171.171,0,0,0,.01-.026,3.818,3.818,0,0,0,.233-.916,14.806,14.806,0,0,1,7.128-9.282,31.088,31.088,0,0,0,8.929,5.69,11.454,11.454,0,0,1-4.467,7.7,2.926,2.926,0,1,0,4.365,2.511.167.167,0,0,0,0-.022,2.9,2.9,0,0,0-.106-.721,11.432,11.432,0,0,1,2.292-8.685,30.954,30.954,0,0,0,8.414,1.571,14.806,14.806,0,0,1-1.513,11.585,3.8,3.8,0,1,0,6.476.857.215.215,0,0,0-.012-.026,3.751,3.751,0,0,0-.484-.812,14.81,14.81,0,0,1-1.522-11.6,30.92,30.92,0,0,0,10.338-2.29,11.453,11.453,0,0,1,2.286,8.6,2.927,2.927,0,1,0,4.862-1.31.125.125,0,0,0-.016-.015,2.925,2.925,0,0,0-.585-.435,11.43,11.43,0,0,1-4.521-7.764,31.135,31.135,0,0,0,7.061-4.837,14.8,14.8,0,0,1,7.122,9.261,3.8,3.8,0,1,0,5.186-3.973.17.17,0,0,0-.027-.01,3.786,3.786,0,0,0-.916-.233,14.807,14.807,0,0,1-9.282-7.128,31.1,31.1,0,0,0,5.69-8.93,11.454,11.454,0,0,1,7.7,4.467,2.926,2.926,0,1,0,2.511-4.365.139.139,0,0,0-.021,0,2.921,2.921,0,0,0-.721.106,11.431,11.431,0,0,1-8.686-2.292,30.977,30.977,0,0,0,1.572-8.414,14.8,14.8,0,0,1,11.584,1.512,3.8,3.8,0,1,0,2.348-6.78ZM2820.4,323.618a1.823,1.823,0,1,1-1.822,1.823A1.823,1.823,0,0,1,2820.4,323.618Zm-3.038,11.7a1.823,1.823,0,1,1-1.823,1.823A1.823,1.823,0,0,1,2817.357,335.314ZM2797,331.972a3.342,3.342,0,1,1-3.342,3.342A3.341,3.341,0,0,1,2797,331.972Zm.455,24.3a3.342,3.342,0,1,1,3.342-3.342A3.342,3.342,0,0,1,2797.459,356.275Zm4.253-13.519a1.823,1.823,0,1,1,1.822-1.823A1.823,1.823,0,0,1,2801.713,342.757Zm1.822-12.3a1.823,1.823,0,1,1,1.823,1.823A1.823,1.823,0,0,1,2803.535,330.453Zm2.43,27.949a1.823,1.823,0,1,1,1.823-1.823A1.823,1.823,0,0,1,2805.965,358.4Zm1.671-36.3a3.342,3.342,0,1,1,3.342,3.342A3.342,3.342,0,0,1,2807.636,322.1Zm2.431,21.265a1.823,1.823,0,1,1,1.823,1.823A1.822,1.822,0,0,1,2810.067,343.364Zm5.164,23.24a3.342,3.342,0,1,1,3.342-3.342A3.342,3.342,0,0,1,2815.231,366.6Zm2.126-19.9a1.823,1.823,0,1,1,1.823,1.823A1.823,1.823,0,0,1,2817.357,346.706Zm3.8,11.392a1.823,1.823,0,1,1,1.823-1.823A1.823,1.823,0,0,1,2821.155,358.1Zm8.354-35.543a1.823,1.823,0,1,1-1.823,1.823A1.822,1.822,0,0,1,2829.509,322.555Zm1.975,20.81a1.823,1.823,0,1,1-1.823-1.823A1.823,1.823,0,0,1,2831.484,343.364Zm-.3,19.9a3.342,3.342,0,1,1,3.342-3.342A3.342,3.342,0,0,1,2831.18,363.262ZM2833,333.795a3.341,3.341,0,1,1,3.341,3.342A3.341,3.341,0,0,1,2833,333.795Zm6.075,15.189a1.823,1.823,0,1,1,1.823-1.823A1.823,1.823,0,0,1,2839.079,348.984Z" transform="translate(-2024.599 3511.005)" fill="#e6aa37"/>
  </g>
</svg>
