<svg xmlns="http://www.w3.org/2000/svg" width="32.583" height="47.293" viewBox="0 0 32.583 47.293">
  <g id="グループ_357" data-name="グループ 357" transform="translate(-510.499 -410.042)">
    <path id="パス_2459" data-name="パス 2459" d="M538.173,429.847c-4.263-8.137-5.813-18.873-5.828-18.982a.955.955,0,0,0-1.892.266c.066.47,1.67,11.6,6.291,20.1a.955.955,0,0,0,.839.5,3.588,3.588,0,0,1,0,7.176h-2.846c.06-.157.118-.315.17-.476a.955.955,0,1,0-1.819-.584,6.614,6.614,0,0,1-12.6,0,.955.955,0,1,0-1.819.584c.052.162.11.32.17.476H516a3.588,3.588,0,0,1,0-7.176.955.955,0,0,0,.839-.5c4.621-8.5,6.225-19.627,6.291-20.1a.955.955,0,0,0-1.892-.266c-.016.11-1.561,10.838-5.828,18.982a5.5,5.5,0,0,0,.59,10.966h3.879a8.533,8.533,0,0,0,13.828,0h3.878a5.5,5.5,0,0,0,.59-10.966Z" fill="#e6aa37"/>
    <path id="パス_2460" data-name="パス 2460" d="M519.392,518.029a.955.955,0,0,0-.71.316c-.737.818-4.412,5.026-4.412,7.566a5.122,5.122,0,0,0,10.244,0c0-2.539-3.675-6.748-4.412-7.566A.955.955,0,0,0,519.392,518.029Zm0,11.092a3.215,3.215,0,0,1-3.211-3.211c0-1.146,1.7-3.638,3.211-5.463,1.511,1.824,3.211,4.315,3.211,5.463A3.214,3.214,0,0,1,519.392,529.121Z" transform="translate(-2.574 -73.697)" fill="#e6aa37"/>
    <path id="パス_2461" data-name="パス 2461" d="M580.694,518.029a.955.955,0,0,0-.71.316c-.737.818-4.412,5.026-4.412,7.566a5.122,5.122,0,1,0,10.243,0c0-2.539-3.675-6.748-4.412-7.566A.955.955,0,0,0,580.694,518.029Zm0,11.092a3.215,3.215,0,0,1-3.211-3.211c0-1.146,1.7-3.638,3.211-5.463,1.511,1.824,3.211,4.315,3.211,5.463A3.215,3.215,0,0,1,580.694,529.121Z" transform="translate(-44.41 -73.697)" fill="#e6aa37"/>
  </g>
</svg>
