<svg xmlns="http://www.w3.org/2000/svg" width="30.47" height="46.88" viewBox="0 0 30.47 46.88">
  <g id="グループ_568" data-name="グループ 568" transform="translate(-98.653 -71)">
    <path id="パス_58868" data-name="パス 58868" d="M148.449,82.229a5.614,5.614,0,1,1,5.615-5.615A5.621,5.621,0,0,1,148.449,82.229Zm0-9.339a3.725,3.725,0,1,0,3.725,3.725A3.729,3.729,0,0,0,148.449,72.89Z" transform="translate(-31.073)" fill="#a0a0a0"/>
    <path id="パス_58869" data-name="パス 58869" d="M102.835,114.316l-3.607,6.1a3.842,3.842,0,0,0,1.05,5.111,3.778,3.778,0,0,0,5.407-1.182l2.609-4.41.163-.058s-.93,6.263-.963,6.4l-1.5,6.365-6.3,6.619a3.779,3.779,0,0,0,2.737,6.385,3.8,3.8,0,0,0,2.737-1.173l7.361-7.733.353-.371.118-.5.151-.641c2.634,4.092,5.375,8.561,5.418,8.63a3.779,3.779,0,0,0,5.394,1.094,3.829,3.829,0,0,0,.967-5.176l-8.167-13.018.448-2.071,6.744,2.664a3.778,3.778,0,0,0,5.03-2.5,3.817,3.817,0,0,0-2.337-4.561l-4.955-1.958-2.093-4.149a6.9,6.9,0,0,0-6.146-3.7,6.463,6.463,0,0,0-2.168.369l-7.457,2.647A3.941,3.941,0,0,0,102.835,114.316Zm24.331,10.024a1.888,1.888,0,0,1-2.516,1.254L117.6,122.81l-1.344-2.663-1.505,6.964,8.576,13.67a1.955,1.955,0,0,1-.456,2.628,1.889,1.889,0,0,1-2.694-.537s-6.724-10.97-9.337-14.442c-.5-.666-1.67-2.2-1.3-3.756l1.322-7.659-3.852,1.367-2.958,5a1.889,1.889,0,0,1-2.705.589,1.954,1.954,0,0,1-.5-2.6l3.607-6.1,7.457-2.647a4.584,4.584,0,0,1,1.535-.26,5.051,5.051,0,0,1,4.459,2.662l2.417,4.791,5.624,2.222A1.952,1.952,0,0,1,127.166,124.34Zm-24.734,19.417a1.89,1.89,0,0,1-1.369-3.192l6.654-6.99,1.11-4.716c.188.282.363.516.492.687.614.816,1.467,2.066,2.407,3.493l-.564,2.4L103.8,143.17A1.884,1.884,0,0,1,102.432,143.757Z" transform="translate(0 -27.767)" fill="#a0a0a0"/>
  </g>
</svg>
