<svg xmlns="http://www.w3.org/2000/svg" xmlns:xlink="http://www.w3.org/1999/xlink" width="240.712" height="105.93" viewBox="0 0 240.712 105.93">
  <defs>
    <clipPath id="clip-path">
      <rect id="長方形_32" data-name="長方形 32" width="22.75" height="13" transform="translate(737 3806)" fill="#fff" stroke="#707070" stroke-width="1"/>
    </clipPath>
  </defs>
  <g id="グループ_677" data-name="グループ 677" transform="translate(-59 -3974)">
    <g id="グループ_582" data-name="グループ 582" transform="translate(91.794 3993.521)">
      <g id="グループ_352" data-name="グループ 352" transform="translate(0 0)">
        <g id="グループ_326" data-name="グループ 326" transform="translate(0.48 0.481)">
          <g id="グループ_323" data-name="グループ 323" transform="translate(18.932 61.258)">
            <path id="パス_2424" data-name="パス 2424" d="M321.22,608.744a5.621,5.621,0,0,0-.781-5.8,19.217,19.217,0,0,1-1.426-1.807,2.08,2.08,0,0,1-.09-2.178,2.777,2.777,0,0,1,.224-.269l.011.006A8.3,8.3,0,0,1,321,596.67l.7-.615c.435-.286.872-.567,1.312-.845a110.452,110.452,0,0,1,22.1-10.758,1.817,1.817,0,0,1,1.092-.146c.546.158.81.76,1,1.293l1.508,4.139.973,2.287q4.268,7.317,8.535,14.631" transform="translate(-318.653 -584.268)" fill="#fff"/>
          </g>
          <g id="グループ_324" data-name="グループ 324">
            <path id="パス_2425" data-name="パス 2425" d="M208.116,223.815a6.633,6.633,0,0,0,3.585,5.862,10.117,10.117,0,0,1-6.912-3.09c-.1-.107-.2-.222-.3-.341a7.463,7.463,0,0,0,1.348,2.99l-.142.083a3.223,3.223,0,0,1-1.349.053,3.428,3.428,0,0,1-2.237-1.4l-.03.022a9.574,9.574,0,0,1,.04-11l-.283-.186a6.446,6.446,0,0,1,1.237-3.527l0,0a19.834,19.834,0,0,1,15.119-8.268,6.453,6.453,0,0,1,4.6-2.293,22.346,22.346,0,0,1,12.479-.578,16.4,16.4,0,0,1,10.851,8.844l.082-.037a5.541,5.541,0,0,1,3.705.419,7.067,7.067,0,0,1,1.248.3c6.023,2,8.961,7.09,9.3,13.124h.006a12.015,12.015,0,0,1-.669,3.126l-.038,0a18.606,18.606,0,0,1-2.508,10.958l.026.016a12.883,12.883,0,0,1-2.284,3.332,14.925,14.925,0,0,1-.957,3.041,19.992,19.992,0,0,1-1.623,2.673c-2.084,3.094-4.025,6.45-4.406,10.161l-.253.021c-.022-.016-.045-.03-.066-.046-.088-.062-.176-.126-.262-.192a14.591,14.591,0,0,1-2.841-2.82c-.13-.051-.256-.106-.383-.163a9.889,9.889,0,0,1-4.134-3.5l-.058.029a20.938,20.938,0,0,1-1.8-4.707,8.115,8.115,0,0,1-.727-2.145,3.847,3.847,0,0,0-1.224-2.22,9.77,9.77,0,0,0-.042-1.948,3.976,3.976,0,0,0-1.138-2.607,2.97,2.97,0,0,0-1.341-.621,3.738,3.738,0,0,0-1.194-.046,5.544,5.544,0,0,0-4.785-1.268l-.04-.072a5.227,5.227,0,0,0-.973.664,6.364,6.364,0,0,0-2.814,2.217l-.093-.006a6.685,6.685,0,0,1-.115.909,8.613,8.613,0,0,0-2.655-4.145,8.349,8.349,0,0,0-2.345-4.116c-.219-.208-.45-.4-.687-.6l-.122.152a10.247,10.247,0,0,0-2.172-1.186,27.346,27.346,0,0,1-2.834-1.495A14.007,14.007,0,0,1,208.116,223.815Z" transform="translate(-200.361 -201.512)" fill="#e6aa37"/>
          </g>
          <g id="グループ_325" data-name="グループ 325" transform="translate(0.034 22.304)">
            <path id="パス_2426" data-name="パス 2426" d="M211.877,346.732a6.633,6.633,0,0,1-3.585-5.862,14.007,14.007,0,0,0,4.793,4.387,27.336,27.336,0,0,0,2.834,1.495,10.249,10.249,0,0,1,2.172,1.186l.122-.152c.237.19.467.387.687.6a8.349,8.349,0,0,1,2.345,4.116,8.613,8.613,0,0,1,2.655,4.145,6.69,6.69,0,0,0,.115-.909l.093.006a6.364,6.364,0,0,1,2.814-2.217,5.228,5.228,0,0,1,.973-.664l.04.072a5.544,5.544,0,0,1,4.785,1.268,3.739,3.739,0,0,1,1.194.046,2.97,2.97,0,0,1,1.341.621,3.976,3.976,0,0,1,1.138,2.607,9.77,9.77,0,0,1,.042,1.948,3.847,3.847,0,0,1,1.224,2.22,8.114,8.114,0,0,0,.727,2.145,20.936,20.936,0,0,0,1.8,4.707l.058-.029a9.888,9.888,0,0,0,4.134,3.5c.126.058.253.112.382.163a14.592,14.592,0,0,0,2.841,2.82,8.2,8.2,0,0,0-.435,2.146l-.139-.008a9.5,9.5,0,0,0,.246,2.772l-.24,0a1.817,1.817,0,0,0-1.092.146,110.444,110.444,0,0,0-22.1,10.758l-.2-.317c-.792-1.714-1.159-3.6-1.885-5.339a6.728,6.728,0,0,0-3.731-4.03,10.322,10.322,0,0,0-4.5,0,6.066,6.066,0,0,1-4.369-.693,4.5,4.5,0,0,1-1.6-2.718,10.61,10.61,0,0,1-.181-2.373l-.128,0c-.37-1.413-.627-2.778-.906-4.1-.592-2.815-1.272-5.41-3.308-7.778l-.35.011a4.976,4.976,0,0,1-1.6-1.375,2.175,2.175,0,0,1-.517-1.319c.024-.954.959-1.576,1.684-2.2a7.2,7.2,0,0,0,2.49-5.221l.048,0a11.712,11.712,0,0,1-.227-1.751,50.832,50.832,0,0,1-.045-5.141,3.223,3.223,0,0,0,1.349-.053l.142-.083a7.463,7.463,0,0,1-1.348-2.99c.1.118.2.234.3.341A10.118,10.118,0,0,0,211.877,346.732Zm-2.612,8.729a1.475,1.475,0,0,0-.272-1.231c-.3-.242-.451-.026-.517.3a2.739,2.739,0,0,0,0,1.168.475.475,0,0,0,.139.256C208.9,356.191,209.227,355.689,209.265,355.461Z" transform="translate(-200.571 -340.87)" fill="#fff"/>
          </g>
        </g>
        <g id="グループ_351" data-name="グループ 351" transform="translate(0)">
          <g id="グループ_327" data-name="グループ 327" transform="translate(0.034 34.758)">
            <path id="パス_2427" data-name="パス 2427" d="M200.164,426.75a.478.478,0,0,1-.229-.058,5.476,5.476,0,0,1-1.75-1.508,2.584,2.584,0,0,1-.613-1.62,3.267,3.267,0,0,1,1.555-2.3c.1-.083.2-.165.3-.247a6.725,6.725,0,0,0,2.322-4.868.48.48,0,0,1,.48-.468h.012a.48.48,0,0,1,.468.492,7.7,7.7,0,0,1-2.659,5.574c-.1.086-.2.171-.31.258-.612.5-1.19.979-1.205,1.584a1.688,1.688,0,0,0,.421,1.018,4.508,4.508,0,0,0,1.441,1.241.48.48,0,0,1-.229.9Z" transform="translate(-197.572 -415.68)" fill="#e6aa37"/>
          </g>
          <g id="グループ_329" data-name="グループ 329" transform="translate(4.885 52.303)">
            <path id="パス_2429" data-name="パス 2429" d="M229.731,526.621c-.164,0-.328-.007-.491-.022a5.182,5.182,0,0,1-1.012-.19.48.48,0,1,1,.271-.921,4.223,4.223,0,0,0,.826.155,4.42,4.42,0,0,0,2.051-.3.48.48,0,0,1,.36.891A5.367,5.367,0,0,1,229.731,526.621Z" transform="translate(-227.883 -525.308)" fill="#e6aa37"/>
          </g>
          <g id="グループ_330" data-name="グループ 330" transform="translate(6.837 55.896)">
            <path id="パス_2430" data-name="パス 2430" d="M256.822,564.708a.48.48,0,0,1-.436-.279,23.855,23.855,0,0,1-1.061-2.946c-.25-.8-.508-1.632-.831-2.409-.473-1.134-1.549-3.131-3.439-3.759a8.507,8.507,0,0,0-3.728-.05c-.187.024-.374.049-.56.071a6.537,6.537,0,0,1-4.713-.784,4.97,4.97,0,0,1-1.781-3,11.1,11.1,0,0,1-.191-2.48c0-.283.013-.564.021-.843a.48.48,0,0,1,.96.028c-.008.275-.016.552-.021.83a10.2,10.2,0,0,0,.17,2.265,4.02,4.02,0,0,0,1.414,2.432,5.708,5.708,0,0,0,4.025.6c.183-.022.368-.046.552-.07a9.21,9.21,0,0,1,4.155.091c2.138.71,3.368,2.731,4.022,4.3.341.818.606,1.67.862,2.494a23.135,23.135,0,0,0,1.016,2.829.48.48,0,0,1-.435.682Z" transform="translate(-240.079 -547.759)" fill="#e6aa37"/>
          </g>
          <g id="グループ_331" data-name="グループ 331" transform="translate(28.013 35.606)">
            <path id="パス_2431" data-name="パス 2431" d="M374.455,434.892a2.666,2.666,0,0,1-1.916-.719.48.48,0,1,1,.67-.688c.705.686,1.992.5,2.955,0a8.222,8.222,0,0,0,4.115-6.817,9.3,9.3,0,0,0-.039-1.854,3.459,3.459,0,0,0-.973-2.3,2.5,2.5,0,0,0-1.125-.515,3.247,3.247,0,0,0-1.041-.04,3.439,3.439,0,0,0-1.92.862.48.48,0,0,1-.648-.709,4.406,4.406,0,0,1,2.455-1.107,4.2,4.2,0,0,1,1.345.053,3.456,3.456,0,0,1,1.557.726,4.342,4.342,0,0,1,1.3,2.914,10.26,10.26,0,0,1,.044,2.044,9.182,9.182,0,0,1-4.636,7.6A4.873,4.873,0,0,1,374.455,434.892Z" transform="translate(-372.394 -420.976)" fill="#e6aa37"/>
          </g>
          <g id="グループ_332" data-name="グループ 332" transform="translate(29.058 41.296)">
            <path id="パス_2432" data-name="パス 2432" d="M379.4,458.742a.48.48,0,0,1-.28-.871,7.838,7.838,0,0,1,3.165-1.334.48.48,0,1,1,.169.945,6.869,6.869,0,0,0-2.775,1.169A.477.477,0,0,1,379.4,458.742Z" transform="translate(-378.924 -456.53)" fill="#e6aa37"/>
          </g>
          <g id="グループ_334" data-name="グループ 334" transform="translate(0 15.173)">
            <path id="パス_2434" data-name="パス 2434" d="M200.3,306.526a.479.479,0,0,1-.357-.158,9.884,9.884,0,0,1-.784-.991,10.054,10.054,0,0,1,.042-11.547c.079-.112.161-.223.245-.333a.48.48,0,0,1,.761.585c-.076.1-.15.2-.221.3a9.094,9.094,0,0,0-.038,10.448,8.928,8.928,0,0,0,.707.894.48.48,0,0,1-.356.8Z" transform="translate(-197.361 -293.309)" fill="#e6aa37"/>
          </g>
          <g id="グループ_335" data-name="グループ 335" transform="translate(3.97 21.349)">
            <path id="パス_2435" data-name="パス 2435" d="M224.6,339.767a.479.479,0,0,1-.353-.154c-.168-.182-.328-.373-.475-.568a7.965,7.965,0,0,1-1.435-3.182,7.816,7.816,0,0,1,.09-3.609.48.48,0,1,1,.927.25,6.851,6.851,0,0,0-.077,3.164,7,7,0,0,0,1.26,2.8c.129.17.268.337.415.5a.48.48,0,0,1-.352.806Z" transform="translate(-222.165 -331.899)" fill="#e6aa37"/>
          </g>
          <g id="グループ_336" data-name="グループ 336" transform="translate(7.754 22.121)">
            <path id="パス_2436" data-name="パス 2436" d="M250.064,343.818a.476.476,0,0,1-.2-.044q-.1-.047-.206-.1a7.093,7.093,0,0,1-3.846-6.295c0-.066,0-.135,0-.2a.48.48,0,0,1,.959.052c0,.052,0,.1,0,.158a6.117,6.117,0,0,0,3.32,5.433c.061.031.117.059.173.085a.48.48,0,0,1-.2.916Z" transform="translate(-245.812 -336.72)" fill="#e6aa37"/>
          </g>
          <g id="グループ_337" data-name="グループ 337" transform="translate(13.535 23.841)">
            <path id="パス_2437" data-name="パス 2437" d="M289.8,360.365a.48.48,0,0,1-.48-.479,7.648,7.648,0,0,0-.206-1.735,7.9,7.9,0,0,0-2.208-3.879c-.192-.182-.406-.368-.657-.569-.208-.168-.418-.331-.628-.493A16.028,16.028,0,0,1,284.182,352a8.317,8.317,0,0,1-2.235-3.939.48.48,0,0,1,.933-.225,7.345,7.345,0,0,0,1.974,3.478,15.072,15.072,0,0,0,1.358,1.135c.216.167.432.334.644.506.269.216.5.419.715.62a8.875,8.875,0,0,1,2.482,4.355,8.6,8.6,0,0,1,.232,1.953.48.48,0,0,1-.479.481Z" transform="translate(-281.934 -347.47)" fill="#e6aa37"/>
          </g>
          <g id="グループ_338" data-name="グループ 338" transform="translate(22.73 33.521)">
            <path id="パス_2438" data-name="パス 2438" d="M340.439,413.74a.48.48,0,0,1-.469-.587c.019-.083.038-.167.053-.25a6.312,6.312,0,0,0,.109-.853,6.669,6.669,0,0,0-.7-3.4.48.48,0,0,1,.857-.433,7.628,7.628,0,0,1,.8,3.893,7.2,7.2,0,0,1-.123.973c-.016.09-.038.189-.061.288A.48.48,0,0,1,340.439,413.74Z" transform="translate(-339.383 -407.949)" fill="#e6aa37"/>
          </g>
          <g id="グループ_339" data-name="グループ 339" transform="translate(26.384 33.636)">
            <path id="パス_2439" data-name="パス 2439" d="M362.695,410.954a.48.48,0,0,1-.315-.843,5.726,5.726,0,0,1,1.063-.725,6.05,6.05,0,0,1,4.144-.57.48.48,0,0,1-.214.936,5.08,5.08,0,0,0-3.479.482,4.762,4.762,0,0,0-.885.6A.477.477,0,0,1,362.695,410.954Z" transform="translate(-362.214 -408.672)" fill="#e6aa37"/>
          </g>
          <g id="グループ_340" data-name="グループ 340" transform="translate(2.708 3.49)">
            <path id="パス_2440" data-name="パス 2440" d="M214.764,229.556a.48.48,0,0,1-.393-.756,20.4,20.4,0,0,1,15.491-8.472c.231-.011.443-.016.647-.018h0a.48.48,0,0,1,0,.96c-.191,0-.391.007-.61.017a19.42,19.42,0,0,0-14.748,8.064A.48.48,0,0,1,214.764,229.556Z" transform="translate(-214.284 -220.31)" fill="#e6aa37"/>
          </g>
          <g id="グループ_341" data-name="グループ 341" transform="translate(20.449)">
            <path id="パス_2441" data-name="パス 2441" d="M351.04,209.214a.48.48,0,0,1-.444-.3c-.035-.085-.073-.17-.111-.256a15.822,15.822,0,0,0-10.535-8.576,21.793,21.793,0,0,0-12.209.57c-.649.209-1.3.449-1.944.714a.48.48,0,0,1-.366-.888c.665-.274,1.343-.523,2.016-.74a22.747,22.747,0,0,1,12.748-.585,16.788,16.788,0,0,1,11.168,9.114c.041.092.083.186.122.28a.481.481,0,0,1-.444.663Z" transform="translate(-325.133 -198.505)" fill="#e6aa37"/>
          </g>
          <g id="グループ_342" data-name="グループ 342" transform="translate(47.67 9.812)">
            <path id="パス_2442" data-name="パス 2442" d="M508.119,274.249a.48.48,0,0,1-.479-.453c-.361-6.383-3.548-10.891-8.974-12.7a6.528,6.528,0,0,0-1.163-.284,3.35,3.35,0,0,0-1.644.124.48.48,0,1,1-.33-.9,4.286,4.286,0,0,1,2.11-.173,7.451,7.451,0,0,1,1.331.324A13.277,13.277,0,0,1,506,265.427a16.328,16.328,0,0,1,2.6,8.314.48.48,0,0,1-.452.507Z" transform="translate(-495.213 -259.81)" fill="#e6aa37"/>
          </g>
          <g id="グループ_343" data-name="グループ 343" transform="translate(56.165 25.606)">
            <path id="パス_2443" data-name="パス 2443" d="M548.774,372.353a.48.48,0,0,1-.393-.755c.241-.346.478-.713.7-1.092a18.124,18.124,0,0,0,2.442-10.672c-.02-.243-.048-.5-.086-.792a.48.48,0,1,1,.952-.124c.04.306.069.579.09.836A19.092,19.092,0,0,1,549.909,371c-.238.4-.487.787-.741,1.152A.48.48,0,0,1,548.774,372.353Z" transform="translate(-548.294 -358.499)" fill="#e6aa37"/>
          </g>
          <g id="グループ_344" data-name="グループ 344" transform="translate(47.643 39.97)">
            <path id="パス_2444" data-name="パス 2444" d="M495.525,465.84l-.05,0a.48.48,0,0,1-.429-.527c.4-3.858,2.39-7.269,4.485-10.381l.154-.229a17.816,17.816,0,0,0,1.432-2.378,14.533,14.533,0,0,0,.924-2.944c.053-.229.1-.457.151-.684l.015-.067a.48.48,0,1,1,.938.2l-.014.067c-.05.231-.1.463-.153.694a15.383,15.383,0,0,1-.99,3.136,18.508,18.508,0,0,1-1.506,2.51l-.153.228c-2.026,3.008-3.952,6.294-4.327,9.942A.48.48,0,0,1,495.525,465.84Z" transform="translate(-495.044 -448.249)" fill="#e6aa37"/>
          </g>
          <g id="グループ_345" data-name="グループ 345" transform="translate(21.147 61.26)">
            <path id="パス_2445" data-name="パス 2445" d="M366.938,604.4l-.013-.022L358.39,589.75a.554.554,0,0,1-.027-.054l-.973-2.287c0-.008-.006-.016-.009-.024l-1.508-4.139c-.168-.463-.368-.9-.686-1a1.454,1.454,0,0,0-.8.137A110.03,110.03,0,0,0,332.382,593.1c-.489.309-.916.584-1.305.84q-.421.274-.836.551a.48.48,0,0,1-.533-.8q.42-.28.843-.555c.392-.258.824-.536,1.318-.848a110.983,110.983,0,0,1,22.2-10.8,2.264,2.264,0,0,1,1.386-.154c.831.241,1.162,1.152,1.321,1.59l1.5,4.127.956,2.248,8.533,14.627" transform="translate(-329.494 -581.271)" fill="#e6aa37"/>
          </g>
          <g id="グループ_346" data-name="グループ 346" transform="translate(18.929 75.681)">
            <path id="パス_2446" data-name="パス 2446" d="M318.246,681.721a5.128,5.128,0,0,0-.725-5.319c-.166-.221-.348-.43-.541-.651a7.731,7.731,0,0,1-.917-1.2,2.541,2.541,0,0,1-.067-2.694,3.205,3.205,0,0,1,.262-.316.48.48,0,0,1,.711.645,2.4,2.4,0,0,0-.186.222,1.634,1.634,0,0,0,.112,1.663,6.914,6.914,0,0,0,.809,1.052c.2.225.4.457.586.706a6.129,6.129,0,0,1,.837,6.281" transform="translate(-315.636 -671.38)" fill="#e6aa37"/>
          </g>
          <g id="グループ_347" data-name="グループ 347" transform="translate(26.522 73.994)">
            <path id="パス_2447" data-name="パス 2447" d="M363.555,668.369a.48.48,0,0,1-.279-.872,57.31,57.31,0,0,1,12.253-6.625.48.48,0,1,1,.351.894,56.348,56.348,0,0,0-12.048,6.514A.478.478,0,0,1,363.555,668.369Z" transform="translate(-363.074 -660.839)" fill="#e6aa37"/>
          </g>
          <g id="グループ_348" data-name="グループ 348" transform="translate(46.471 58.148)">
            <path id="パス_2448" data-name="パス 2448" d="M488.465,565.935a.48.48,0,0,1-.466-.368,9.962,9.962,0,0,1-.259-2.912c.007-.129.017-.261.031-.394a.48.48,0,0,1,.955.1c-.012.116-.021.231-.027.348a9.012,9.012,0,0,0,.234,2.636.48.48,0,0,1-.467.592Z" transform="translate(-487.722 -561.83)" fill="#e6aa37"/>
          </g>
          <g id="グループ_349" data-name="グループ 349" transform="translate(37.602 43.586)">
            <path id="パス_2449" data-name="パス 2449" d="M435.144,479.334c-.249-.482-.5-.97-.744-1.458a21.487,21.487,0,0,1-1.838-4.817,11.693,11.693,0,0,1-.256-1.7.48.48,0,1,1,.957-.072,10.725,10.725,0,0,0,.236,1.564,20.612,20.612,0,0,0,1.761,4.6c.24.481.49.966.732,1.434l-.421.231Z" transform="translate(-432.304 -470.841)" fill="#e6aa37"/>
          </g>
          <g id="グループ_350" data-name="グループ 350" transform="translate(42.1 49.624)">
            <path id="パス_2450" data-name="パス 2450" d="M462.978,513.693a.479.479,0,0,1-.346-.147c-.124-.129-.248-.268-.369-.413a8.417,8.417,0,0,1-1.842-4,.48.48,0,0,1,.947-.158A7.456,7.456,0,0,0,463,512.517c.106.128.215.249.323.362a.48.48,0,0,1-.346.813Z" transform="translate(-460.414 -508.569)" fill="#e6aa37"/>
          </g>
        </g>
      </g>
    </g>
    <g id="グループ_583" data-name="グループ 583" transform="translate(63.419 4020.285)">
      <circle id="楕円形_35" data-name="楕円形 35" cx="2" cy="2" r="2" transform="translate(11.581 -0.286)" fill="#e6aa37"/>
      <circle id="楕円形_38" data-name="楕円形 38" cx="2" cy="2" r="2" transform="translate(-0.419 30.714)" fill="#e6aa37"/>
      <circle id="楕円形_37" data-name="楕円形 37" cx="1" cy="1" r="1" transform="translate(11.581 19.714)" fill="#e6aa37"/>
      <circle id="楕円形_36" data-name="楕円形 36" cx="2.5" cy="2.5" r="2.5" transform="translate(-0.419 7.714)" fill="#e6aa37"/>
      <ellipse id="楕円形_39" data-name="楕円形 39" cx="2.5" cy="2" rx="2.5" ry="2" transform="translate(8.581 41.714)" fill="#e6aa37"/>
    </g>
    <line id="線_431" data-name="線 431" y2="18.601" transform="translate(77.198 3992.144)" fill="none" stroke="#eae4d9" stroke-width="1"/>
    <text id="花粉_ハウスダスト_抗原_" data-name="花粉・ハウスダスト(抗原)" transform="translate(59 3974)" fill="#e6aa37" font-size="9" font-family="HiraginoSans-W6, Hiragino Sans" letter-spacing="-0.05em"><tspan x="0" y="10">花粉・ハウスダスト</tspan><tspan y="10" font-family="NotoSans-Bold, Noto Sans" font-weight="700">(</tspan><tspan y="10">抗原</tspan><tspan y="10" font-family="NotoSans-Bold, Noto Sans" font-weight="700">)</tspan></text>
    <g id="マスクグループ_838" data-name="マスクグループ 838" transform="translate(-561 236)" clip-path="url(#clip-path)">
      <path id="パス_58880" data-name="パス 58880" d="M376.51,374.433c-.684-.283-1.364-.573-2.052-.847a2.1,2.1,0,0,1-.66-.418.8.8,0,0,1-.26-.468c-.049-.306.046-.422.348-.378a3.279,3.279,0,0,1,.585.15c.919.312,1.84.617,2.742.977a9.626,9.626,0,0,0,2.532.594,1.751,1.751,0,0,1,1.368,1.137.548.548,0,0,1-.454.809,12.675,12.675,0,0,0-2.761.672c-1.071.368-2.159.679-3.253.97a.886.886,0,0,1-.852-.168c-.341-.285-.33-.608.061-.817.5-.264,1.015-.486,1.531-.729-.131-.2-.326-.124-.492-.127-2.831-.049-5.661,0-8.491.073-3.518.089-7.037.088-10.556.068q-4.762-.026-9.521.1c-3.659.1-7.316.272-10.974.41-1.092.041-2.178-.127-3.272-.1a1.251,1.251,0,0,1-1.093-.555c-.186-.277-.1-.469.239-.487a7.765,7.765,0,0,1,1.273.005,26.838,26.838,0,0,0,4,0c1.556-.054,3.111-.129,4.666-.187,2.22-.083,4.44-.179,6.661-.232,2.868-.069,5.736-.111,8.605-.1q3.97.011,7.939-.024c1.515-.016,3.028-.091,4.542-.132,2.343-.064,4.687-.079,7.031-.07h.541Z" transform="translate(376.211 3438.237)" fill="#e6aa37" fill-rule="evenodd"/>
    </g>
    <line id="線_432" data-name="線 432" y2="11.302" transform="translate(287.921 3991.245)" fill="none" stroke="#eae4d9" stroke-width="1"/>
    <text id="抗体" transform="translate(281.712 3982.93)" fill="#e6aa37" font-size="9" font-family="HiraginoSans-W6, Hiragino Sans" letter-spacing="-0.05em"><tspan x="0" y="0">抗体</tspan></text>
    <text id="マスト細胞" transform="translate(241 4078.439)" fill="#e6aa37" font-size="9" font-family="HiraginoSans-W6, Hiragino Sans" letter-spacing="-0.05em"><tspan x="0" y="0">マスト細胞</tspan></text>
    <path id="パス_58881" data-name="パス 58881" d="M2829.652,323.9a2.465,2.465,0,0,0-.971.2l-.017.008a2.479,2.479,0,0,0-.53.315,9.647,9.647,0,0,1-7.559.992,20.14,20.14,0,0,0-1.492-6.734,7.461,7.461,0,0,1,5.6-1.489,1.906,1.906,0,1,0-.854-3.167l-.01.01a1.887,1.887,0,0,0-.283.381,7.447,7.447,0,0,1-5.058,2.945,20.269,20.269,0,0,0-3.151-4.6,9.646,9.646,0,0,1,6.033-4.64,2.473,2.473,0,1,0-2.588-3.378.094.094,0,0,0-.006.017,2.465,2.465,0,0,0-.152.6,9.647,9.647,0,0,1-4.644,6.047,20.25,20.25,0,0,0-5.817-3.707,7.461,7.461,0,0,1,2.91-5.016,1.907,1.907,0,1,0-2.843-1.636.069.069,0,0,0,0,.014,1.909,1.909,0,0,0,.069.47,7.445,7.445,0,0,1-1.493,5.658,20.163,20.163,0,0,0-5.481-1.024,9.645,9.645,0,0,1,.985-7.547,2.473,2.473,0,1,0-4.219-.559.1.1,0,0,0,.008.017,2.454,2.454,0,0,0,.315.529,9.646,9.646,0,0,1,.992,7.559,20.136,20.136,0,0,0-6.734,1.492,7.461,7.461,0,0,1-1.489-5.6,1.906,1.906,0,1,0-3.167.854l.01.01a1.9,1.9,0,0,0,.381.283,7.447,7.447,0,0,1,2.945,5.058,20.264,20.264,0,0,0-4.6,3.151,9.643,9.643,0,0,1-4.64-6.033,2.473,2.473,0,1,0-3.378,2.588l.018.006a2.473,2.473,0,0,0,.6.152,9.647,9.647,0,0,1,6.047,4.644,20.247,20.247,0,0,0-3.707,5.817,7.461,7.461,0,0,1-5.016-2.91,1.906,1.906,0,1,0-1.636,2.843h.014a1.9,1.9,0,0,0,.469-.069,7.446,7.446,0,0,1,5.658,1.493,20.15,20.15,0,0,0-1.023,5.481,9.645,9.645,0,0,1-7.547-.985,2.473,2.473,0,1,0-.558,4.219l.016-.008a2.468,2.468,0,0,0,.529-.315,9.646,9.646,0,0,1,7.56-.992,20.134,20.134,0,0,0,1.492,6.734,7.461,7.461,0,0,1-5.6,1.489,1.906,1.906,0,1,0,.854,3.167l.01-.01a1.935,1.935,0,0,0,.283-.381,7.445,7.445,0,0,1,5.057-2.945,20.266,20.266,0,0,0,3.151,4.6,9.645,9.645,0,0,1-6.033,4.64,2.473,2.473,0,1,0,2.588,3.378.091.091,0,0,0,.007-.017,2.478,2.478,0,0,0,.152-.6,9.645,9.645,0,0,1,4.644-6.047,20.254,20.254,0,0,0,5.817,3.707,7.463,7.463,0,0,1-2.91,5.016,1.906,1.906,0,1,0,2.843,1.636.11.11,0,0,0,0-.014,1.885,1.885,0,0,0-.069-.47,7.447,7.447,0,0,1,1.493-5.658,20.163,20.163,0,0,0,5.481,1.024,9.646,9.646,0,0,1-.985,7.547,2.473,2.473,0,1,0,4.219.559.123.123,0,0,0-.008-.017,2.439,2.439,0,0,0-.315-.529,9.647,9.647,0,0,1-.992-7.559,20.142,20.142,0,0,0,6.734-1.492,7.459,7.459,0,0,1,1.489,5.6,1.907,1.907,0,1,0,3.167-.854l-.01-.01a1.906,1.906,0,0,0-.381-.283,7.446,7.446,0,0,1-2.945-5.058,20.283,20.283,0,0,0,4.6-3.151,9.645,9.645,0,0,1,4.639,6.033,2.473,2.473,0,1,0,3.378-2.588l-.017-.006a2.468,2.468,0,0,0-.6-.152,9.645,9.645,0,0,1-6.047-4.644,20.258,20.258,0,0,0,3.707-5.817,7.461,7.461,0,0,1,5.016,2.91,1.906,1.906,0,1,0,1.636-2.843h-.014a1.907,1.907,0,0,0-.469.069,7.447,7.447,0,0,1-5.658-1.493,20.179,20.179,0,0,0,1.024-5.481,9.644,9.644,0,0,1,7.547.985,2.474,2.474,0,1,0,1.53-4.417Zm-27.31-10.39a1.187,1.187,0,1,1-1.187,1.187A1.187,1.187,0,0,1,2802.341,313.505Zm-1.979,7.619a1.187,1.187,0,1,1-1.187,1.187A1.188,1.188,0,0,1,2800.362,321.125Zm-13.259-2.177a2.177,2.177,0,1,1-2.177,2.177A2.177,2.177,0,0,1,2787.1,318.948Zm.3,15.832a2.177,2.177,0,1,1,2.177-2.177A2.177,2.177,0,0,1,2787.4,334.78Zm2.771-8.807a1.187,1.187,0,1,1,1.187-1.187A1.187,1.187,0,0,1,2790.171,325.973Zm1.187-8.015a1.188,1.188,0,1,1,1.188,1.187A1.188,1.188,0,0,1,2791.358,317.958Zm1.583,18.207a1.187,1.187,0,1,1,1.187-1.187A1.187,1.187,0,0,1,2792.941,336.165Zm1.088-23.649a2.177,2.177,0,1,1,2.177,2.177A2.177,2.177,0,0,1,2794.03,312.516Zm1.583,13.853a1.187,1.187,0,1,1,1.188,1.187A1.187,1.187,0,0,1,2795.613,326.369Zm3.364,15.139a2.177,2.177,0,1,1,2.177-2.177A2.177,2.177,0,0,1,2798.977,341.508Zm1.385-12.962a1.188,1.188,0,1,1,1.188,1.187A1.188,1.188,0,0,1,2800.362,328.546Zm2.474,7.421a1.187,1.187,0,1,1,1.187-1.187A1.188,1.188,0,0,1,2802.836,335.967Zm5.442-23.154a1.187,1.187,0,1,1-1.187,1.187A1.187,1.187,0,0,1,2808.279,312.813Zm1.286,13.556a1.188,1.188,0,1,1-1.187-1.187A1.188,1.188,0,0,1,2809.565,326.369Zm-.2,12.962a2.177,2.177,0,1,1,2.177-2.177A2.177,2.177,0,0,1,2809.367,339.331Zm1.188-19.2a2.177,2.177,0,1,1,2.177,2.177A2.177,2.177,0,0,1,2810.555,320.135Zm3.958,9.9a1.187,1.187,0,1,1,1.187-1.187A1.188,1.188,0,0,1,2814.512,330.03Z" transform="translate(-2537.6 3704.756)" fill="#e6aa37"/>
  </g>
</svg>
