<svg xmlns="http://www.w3.org/2000/svg" width="143.806" height="127.64" viewBox="0 0 143.806 127.64">
  <path id="パス_58770" data-name="パス 58770" d="M95.451,85.606c-.9.211-1.79.447-2.692.629a4.734,4.734,0,0,0-2.25,1.037c-.759.667-1.718,1.356-1.294,2.533a2.261,2.261,0,0,0,2.669,1.441,39.02,39.02,0,0,1,8.83-.3c4.233.4,8.541.15,12.694,1.24a5.509,5.509,0,0,0,4.264-.628c2.24-1.244,2.351-3.733.17-5.092-4.339-2.705-8.421-5.766-12.493-8.841-1.553-1.172-3.046-2.431-4.54-3.677a4.239,4.239,0,0,0-2.782-1.11c-1.6.006-2.507,1.133-3.2,2.338-.672,1.16.338,1.859,1.047,2.573a9.487,9.487,0,0,1,2.08,2.677c-2.251-.757-4.474-1.619-6.761-2.254C72.881,73.1,57.185,63.145,42.1,52.017A117.079,117.079,0,0,1,20.544,30.793a85.086,85.086,0,0,1-10.2-15.88A74.857,74.857,0,0,1,7.205,7.5c-.7-1.933-1.746-3.684-2.532-5.566A2.477,2.477,0,0,0,2.88.335C2.085.155,1.254-.331.508.358-.206,1.017-.014,1.882.172,2.7c1.917,8.43,5.694,16.056,10.261,23.3a94.382,94.382,0,0,0,9.7,12.875A127.548,127.548,0,0,0,40.721,57.507c7.851,5.61,15.788,11.1,24.385,15.506a105.249,105.249,0,0,0,16.822,7.263c4.567,1.414,9.038,3.218,13.578,4.78C95.487,85.238,95.47,85.422,95.451,85.606Z" transform="translate(31.592) rotate(20)" fill="#444" fill-rule="evenodd" opacity="0.2"/>
</svg>
