<svg xmlns="http://www.w3.org/2000/svg" width="158.041" height="142.531" viewBox="0 0 158.041 142.531">
  <path id="パス_58771" data-name="パス 58771" d="M103.313,7.319c-.97-.228-1.937-.484-2.914-.681a5.124,5.124,0,0,1-2.435-1.122c-.821-.722-1.859-1.468-1.4-2.742a2.447,2.447,0,0,1,2.889-1.56,42.234,42.234,0,0,0,9.557.328c4.582-.434,9.244-.162,13.74-1.342a5.963,5.963,0,0,1,4.615.68c2.424,1.347,2.545,4.041.184,5.511-4.7,2.928-9.115,6.241-13.522,9.569-1.681,1.269-3.3,2.631-4.914,3.98a4.589,4.589,0,0,1-3.011,1.2c-1.737-.007-2.714-1.226-3.467-2.531-.727-1.256.366-2.012,1.133-2.785a10.269,10.269,0,0,0,2.251-2.9c-2.436.819-4.843,1.752-7.318,2.44C78.885,20.86,61.9,31.63,45.569,43.675A126.722,126.722,0,0,0,22.236,66.647,92.1,92.1,0,0,0,11.192,83.835,81.023,81.023,0,0,0,7.8,91.864c-.757,2.092-1.89,3.988-2.741,6.024a2.681,2.681,0,0,1-1.94,1.726c-.861.2-1.76.721-2.568-.025-.773-.713-.565-1.649-.364-2.537,2.075-9.124,6.163-17.379,11.106-25.223a102.156,102.156,0,0,1,10.5-13.936,138.053,138.053,0,0,1,22.285-20.16c8.5-6.072,17.089-12.019,26.394-16.783a113.917,113.917,0,0,1,18.208-7.861c4.943-1.53,9.782-3.483,14.7-5.174C103.352,7.718,103.333,7.518,103.313,7.319Z" transform="matrix(-0.921, 0.391, -0.391, -0.921, 158.041, 92.028)" fill="#444" fill-rule="evenodd" opacity="0.2"/>
</svg>
