<svg xmlns="http://www.w3.org/2000/svg" width="48.803" height="48.803" viewBox="0 0 48.803 48.803">
  <g id="グループ_601" data-name="グループ 601" transform="translate(-778.614 -21978.027)">
    <circle id="楕円形_39" data-name="楕円形 39" cx="24.402" cy="24.402" r="24.402" transform="translate(778.614 21978.027)" fill="#00a2f9"/>
    <path id="パス_1744" data-name="パス 1744" d="M22.761,2.156a9.451,9.451,0,0,1-2.68.723A4.614,4.614,0,0,0,22.135.334a9.426,9.426,0,0,1-2.967,1.117A4.7,4.7,0,0,0,15.758,0,4.6,4.6,0,0,0,11.21,5.645,13.337,13.337,0,0,1,1.584.841,4.553,4.553,0,0,0,3.032,6.979,4.72,4.72,0,0,1,.915,6.4V6.46a4.519,4.519,0,0,0,.317,1.667A4.669,4.669,0,0,0,4.663,10.97a4.9,4.9,0,0,1-1.233.162,4.672,4.672,0,0,1-.881-.086,4.669,4.669,0,0,0,4.364,3.192,9.45,9.45,0,0,1-5.8,1.97A9.761,9.761,0,0,1,0,16.145,13.376,13.376,0,0,0,7.158,18.21a13,13,0,0,0,12.971-10.3,12.65,12.65,0,0,0,.319-2.775c0-.2-.005-.4-.015-.594A9.383,9.383,0,0,0,22.761,2.156Z" transform="translate(792.326 21994.27)" fill="#fff"/>
  </g>
</svg>
