<svg xmlns="http://www.w3.org/2000/svg" width="50.023" height="50.023" viewBox="0 0 50.023 50.023">
  <g id="グループ_603" data-name="グループ 603" transform="translate(-906.772 -21978.027)">
    <circle id="楕円形_498" data-name="楕円形 498" cx="25.012" cy="25.012" r="25.012" transform="translate(906.772 21978.027)" fill="#fc0000"/>
    <path id="パス_58727" data-name="パス 58727" d="M196.542,90.994a2.813,2.813,0,0,0-1.986-1.986c-1.752-.469-8.776-.469-8.776-.469s-7.024,0-8.776.469a2.813,2.813,0,0,0-1.986,1.986,31.381,31.381,0,0,0,0,10.813,2.813,2.813,0,0,0,1.986,1.986c1.752.469,8.776.469,8.776.469s7.024,0,8.776-.469a2.813,2.813,0,0,0,1.986-1.986,31.38,31.38,0,0,0,0-10.813ZM183.535,99.77V93.031l5.835,3.37Z" transform="translate(746.077 21907.074)" fill="#fff"/>
  </g>
</svg>
