<svg xmlns="http://www.w3.org/2000/svg" width="135" height="64.557" viewBox="0 0 135 64.557">
  <g id="グループ_580" data-name="グループ 580" transform="translate(-38 -74.323)">
    <path id="パス_1" data-name="パス 1" d="M217.976,222.308a7.655,7.655,0,0,0-6.129,2.8V210.92h-3.5v31.534h3.5v-2.8a7.6,7.6,0,0,0,6.129,2.8h.009a8.754,8.754,0,0,0,2.768-.445,9.916,9.916,0,0,0,6.509-9.628C227.262,226.743,223.158,222.308,217.976,222.308Zm4.819,13.9a6,6,0,0,1-5.358,3.01,6.228,6.228,0,0,1-3.863-1.339,7.146,7.146,0,0,1-1.728-1.937v-7a6.76,6.76,0,0,1,5.6-3.3c3.79,0,6.3,3.048,6.3,6.8A7.545,7.545,0,0,1,222.8,236.211Zm33.849-19.043a2.363,2.363,0,1,1-2.363-2.363A2.389,2.389,0,0,1,256.645,217.168Zm-4.1,6.135h3.482v19.151h-3.482Zm89.276,6.342v4.912l-3.482,2.011v-6.342a5.111,5.111,0,0,0-.778-2.921,3.683,3.683,0,0,0-.559-.649,3.735,3.735,0,0,0-.325-.267,4.3,4.3,0,0,0-1.56-.7,6.035,6.035,0,0,0-1.379-.152c-3.109,0-4.767,3.233-4.767,3.233v13.679h-3.482V222.806h3.233V225.5a6.813,6.813,0,0,1,5.887-3.192h0A6.97,6.97,0,0,1,341.816,229.645ZM286.7,218.131l3.126-7.1c0-.007.011-.011.015-.018l.032-.09h4.942l-.327.31h0l-3.749,3.551-3.751,3.553A.18.18,0,0,1,286.7,218.131Zm3.925,4.177c-5.348,0-9.327,4.021-9.327,10.2a10.89,10.89,0,0,0,.041,1.119h15.462a6.459,6.459,0,0,1-6.591,5.6,7.352,7.352,0,0,1-5.169-2.15l-2.79,1.611a10.676,10.676,0,0,0,7.959,3.772,9.785,9.785,0,0,0,9.99-10.073,11.338,11.338,0,0,0-.614-3.708A9.2,9.2,0,0,0,290.629,222.308Zm5.412,8.415H284.7a5.766,5.766,0,0,1,5.928-5.182,5.927,5.927,0,0,1,6.034,4.822c.024.123.045.244.059.359Z" transform="translate(-169.347 -136.597)" fill="#444"/>
    <text id="ビアン鼻用保湿オイル" transform="translate(38 136.881)" fill="#444" font-size="11" font-family="HiraginoSans-W6, Hiragino Sans" letter-spacing="0.25em"><tspan x="0" y="0">ビアン鼻用保湿オイル</tspan></text>
  </g>
</svg>
