<svg xmlns="http://www.w3.org/2000/svg" width="45.078" height="37.893" viewBox="0 0 45.078 37.893">
  <g id="グループ_491" data-name="グループ 491" transform="translate(-47.717 -150.802)">
    <path id="パス_58728" data-name="パス 58728" d="M48.717,151.8h7.929l4.528,21.849s.115.467.134.572c1.034,5.661,3.938,6.887,6.907,6.887H84.257" transform="translate(0)" fill="none" stroke="#fff" stroke-linecap="round" stroke-linejoin="round" stroke-width="2"/>
    <path id="パス_58729" data-name="パス 58729" d="M101.685,196.723a3.293,3.293,0,1,1-3.293-3.292A3.293,3.293,0,0,1,101.685,196.723Z" transform="translate(-13.728 -12.321)" fill="none" stroke="#fff" stroke-miterlimit="10" stroke-width="2"/>
    <path id="パス_58730" data-name="パス 58730" d="M62.176,160.548l33.6,2.257L91.4,176.318l-26.01,0" transform="translate(-3.984 -2.589)" fill="none" stroke="#fff" stroke-linejoin="round" stroke-width="2"/>
    <path id="パス_58731" data-name="パス 58731" d="M75.244,196.723a3.293,3.293,0,1,1-3.293-3.292A3.293,3.293,0,0,1,75.244,196.723Z" transform="translate(-5.902 -12.321)" fill="none" stroke="#fff" stroke-miterlimit="10" stroke-width="2"/>
    <line id="線_427" data-name="線 427" x2="29.99" transform="translate(59.884 166.058)" fill="none" stroke="#fff" stroke-linecap="round" stroke-linejoin="round" stroke-width="2"/>
    <line id="線_428" data-name="線 428" y2="14.426" transform="translate(74.238 159.112)" fill="none" stroke="#fff" stroke-miterlimit="10" stroke-width="2"/>
    <line id="線_429" data-name="線 429" x1="1.969" y2="13.708" transform="translate(81.086 159.761)" fill="none" stroke="#fff" stroke-miterlimit="10" stroke-width="2"/>
    <line id="線_430" data-name="線 430" x2="2.155" y2="15.192" transform="translate(65.352 158.474)" fill="none" stroke="#fff" stroke-miterlimit="10" stroke-width="2"/>
  </g>
</svg>
