<svg xmlns="http://www.w3.org/2000/svg" width="114.916" height="3.032" viewBox="0 0 114.916 3.032">
  <g id="グループ_369" data-name="グループ 369" transform="translate(-350 -1642.24)">
    <path id="パス_4" data-name="パス 4" d="M181.435,937.277c3.4,0,6.807-.008,10.212.005a9.014,9.014,0,0,1,2.883.323c1.65.575,1.527,1.545-.294,1.99a16.416,16.416,0,0,1-3.749.492c-5.5.055-11.01.117-16.514.137-1.188,0-2.387-.12-3.563-.234a5.515,5.515,0,0,1-2.856-1.017c-.832-.635-.454-1.071,1.013-1.355a17.419,17.419,0,0,1,3.253-.227c3.2-.008,6.409,0,9.615,0Z" transform="translate(269.226 704.966)" fill="#e6aa37" fill-rule="evenodd"/>
    <path id="パス_8" data-name="パス 8" d="M132.955,938.1c-1.561.337-1.928,1.066-3.176,1.3a35.648,35.648,0,0,1-6.529.776c-3.205.014-6.412-.078-9.618-.123-2.744-.038-4.429-.59-5.357-1.555a19.837,19.837,0,0,1,6.19-.465c4.834.152,9.609.005,14.379-.221A19.47,19.47,0,0,1,132.955,938.1Z" transform="translate(269.226 704.966)" fill="#e6aa37" fill-rule="evenodd"/>
    <path id="パス_10" data-name="パス 10" d="M135.039,937.92a37.467,37.467,0,0,1,8.248-.2,68.513,68.513,0,0,0,6.887-.052,16.931,16.931,0,0,1,4.644.3c1.139.268,1.77.669,1.654,1.169-.113.484-1.047.758-2.23.833a66.666,66.666,0,0,1-15.884-.519A6.449,6.449,0,0,1,135.039,937.92Z" transform="translate(269.226 704.966)" fill="#e6aa37" fill-rule="evenodd"/>
    <path id="パス_14" data-name="パス 14" d="M91.07,939.174c2.1,0,4.207.005,6.311,0a13.9,13.9,0,0,1,3.487.351c.864.222,1.321.572,1.324,1.042,0,.518-.765.76-1.635.907a29.423,29.423,0,0,1-4.424.369c-3.813.055-7.6-.128-11.389-.284a6.689,6.689,0,0,1-1.959-.328c-1.059-.381-2.25-.857-1.97-1.484.292-.661,1.91-.569,3.048-.589,2.4-.041,4.8-.012,7.207-.012Z" transform="translate(269.226 703.423)" fill="#e6aa37" fill-rule="evenodd"/>
  </g>
</svg>
